<svg xmlns="http://www.w3.org/2000/svg" xmlns:xlink="http://www.w3.org/1999/xlink" viewBox="0,0,256,256" width="50px" height="50px" fill-rule="nonzero"><g fill="#ffffff" fill-rule="nonzero" stroke="none" stroke-width="1" stroke-linecap="butt" stroke-linejoin="miter" stroke-miterlimit="10" stroke-dasharray="" stroke-dashoffset="0" font-family="none" font-weight="none" font-size="none" text-anchor="none" style="mix-blend-mode: normal"><g transform="scale(5.12,5.12)"><path d="M14.28125,0c-7.86328,0 -14.28125,6.32031 -14.28125,14.09375c0,2.45703 0.6875,4.73438 1.8125,6.75c-0.27344,1.42969 -0.4375,2.90234 -0.4375,4.40625c0,13.01953 10.69922,23.5625 23.875,23.5625c1.375,0 2.71484,-0.12109 4.03125,-0.34375c1.93359,0.97266 4.12109,1.53125 6.4375,1.53125c7.86328,0 14.28125,-6.31641 14.28125,-14.09375c0,-2.11719 -0.51953,-4.10156 -1.375,-5.90625c0.32422,-1.54297 0.53125,-3.12109 0.53125,-4.75c0,-13.01172 -10.72656,-23.5625 -23.90625,-23.5625c-1.26172,0 -2.50391,0.125 -3.71875,0.3125c-2.12891,-1.24609 -4.59375,-2 -7.25,-2zM14.28125,2c2.41016,0 4.64063,0.66797 6.53125,1.84375c0.20313,0.13281 0.44531,0.1875 0.6875,0.15625c1.22266,-0.20703 2.47266,-0.3125 3.75,-0.3125c12.11328,0 21.90625,9.64844 21.90625,21.5625c0,1.58984 -0.16406,3.13281 -0.5,4.625c-0.0625,0.23047 -0.03906,0.47266 0.0625,0.6875c0.82031,1.61328 1.28125,3.41016 1.28125,5.34375c0,6.68359 -5.48047,12.09375 -12.28125,12.09375c-2.10547,0 -4.08984,-0.52344 -5.8125,-1.4375c-0.19141,-0.09766 -0.41016,-0.13281 -0.625,-0.09375c-1.30469,0.23828 -2.66016,0.34375 -4.03125,0.34375c-12.11328,0 -21.875,-9.63672 -21.875,-21.5625c0,-1.48437 0.14844,-2.94141 0.4375,-4.34375c0.05078,-0.24609 0.00391,-0.50391 -0.125,-0.71875c-1.07422,-1.79687 -1.6875,-3.85937 -1.6875,-6.09375c0,-6.67578 5.48438,-12.09375 12.28125,-12.09375zM25.09375,8.375c-2.63281,0 -5,0.35547 -7.03125,1.09375c-0.00781,0.00391 -0.02344,-0.00391 -0.03125,0c-2.05078,0.75 -3.72266,1.89063 -4.875,3.375c-1.16406,1.49219 -1.78125,3.27734 -1.78125,5.1875c0,1.97656 0.58203,3.75391 1.71875,5.15625c1.08594,1.33594 2.53906,2.38281 4.3125,3.125c1.6875,0.70703 3.76953,1.30078 6.1875,1.8125c1.73047,0.35938 3.13281,0.69531 4.125,1c0.87891,0.26953 1.57031,0.67188 2.0625,1.125c0.39844,0.36719 0.5625,0.73047 0.5625,1.40625c0,0.79688 -0.32422,1.32422 -1.28125,1.96875c-0.95312,0.64453 -2.27734,1.03125 -4.03125,1.03125c-1.28516,0 -2.27344,-0.20312 -2.90625,-0.5c-0.70703,-0.32812 -1.23437,-0.72656 -1.5625,-1.15625c-0.41016,-0.53125 -0.80469,-1.23047 -1.1875,-2.09375c-0.40625,-0.94141 -0.93359,-1.73828 -1.625,-2.3125c-0.73437,-0.60937 -1.67578,-0.90625 -2.65625,-0.90625c-1.16016,0 -2.24609,0.37109 -3.0625,1.125c-0.80469,0.75 -1.28125,1.78906 -1.28125,2.875c0,1.57422 0.58984,3.15234 1.65625,4.65625c1.05078,1.5 2.45703,2.70703 4.125,3.59375c2.33984,1.22656 5.25,1.8125 8.65625,1.8125c2.83984,0 5.375,-0.42969 7.53125,-1.3125c2.16797,-0.88672 3.90625,-2.15625 5.09375,-3.8125c1.17969,-1.64844 1.77734,-3.57422 1.78125,-5.625c0,-1.69141 -0.33984,-3.20312 -1.0625,-4.46875c-0.69922,-1.22266 -1.6875,-2.24609 -2.90625,-3.03125c-1.16797,-0.75 -2.56641,-1.37109 -4.15625,-1.875c-1.53516,-0.48437 -3.25781,-0.94531 -5.125,-1.34375c-0.01562,-0.00391 -0.01562,0.00391 -0.03125,0c-1.4375,-0.32812 -2.49219,-0.58594 -3.09375,-0.75c-0.55078,-0.15234 -1.13672,-0.35547 -1.6875,-0.625c-0.48047,-0.23828 -0.80859,-0.51953 -1.03125,-0.78125c-0.16797,-0.20312 -0.21875,-0.33594 -0.21875,-0.65625c0,-0.47266 0.17969,-0.83594 0.96875,-1.34375c0.77344,-0.50391 1.89453,-0.78125 3.40625,-0.78125c1.65234,0 2.75,0.30469 3.21875,0.65625c0.65234,0.48438 1.26563,1.21875 1.78125,2.1875c0.01172,0.01172 0.01953,0.01953 0.03125,0.03125c0.52344,0.88672 1.00391,1.54297 1.5625,2.03125c0.69531,0.60156 1.61719,0.84375 2.625,0.84375c1.16406,0 2.25781,-0.42578 3.0625,-1.25c0.77734,-0.79297 1.25,-1.80859 1.25,-2.875c0,-1.02734 -0.30469,-2.07422 -0.84375,-3.0625c-0.55469,-1.01562 -1.40625,-1.9375 -2.5,-2.78125c-1.11719,-0.86328 -2.49609,-1.54297 -4.09375,-2.03125c-1.62891,-0.5 -3.53516,-0.71875 -5.65625,-0.71875zM25.09375,10.375c1.97266,0 3.6875,0.23047 5.0625,0.65625c1.41406,0.43359 2.58984,1.00781 3.46875,1.6875c0.92578,0.71484 1.57813,1.44531 1.96875,2.15625c0.41016,0.75 0.59375,1.44922 0.59375,2.09375c0,0.54688 -0.18359,0.98438 -0.65625,1.46875c-0.44531,0.46094 -0.95703,0.65625 -1.65625,0.65625c-0.6875,0 -1.08594,-0.14844 -1.3125,-0.34375c-0.28906,-0.25 -0.68359,-0.76172 -1.125,-1.5c-0.01172,-0.02344 -0.01953,-0.03906 -0.03125,-0.0625c-0.62109,-1.14453 -1.39453,-2.09766 -2.3125,-2.78125c-1.06641,-0.80078 -2.5625,-1.0625 -4.4375,-1.0625c-1.77344,0 -3.29297,0.34375 -4.5,1.125c-1.125,0.72656 -1.875,1.78906 -1.875,3c0,0.70703 0.24219,1.39844 0.6875,1.9375c0.4375,0.51563 1.00781,0.94531 1.6875,1.28125c0.65625,0.32422 1.34375,0.59375 2.03125,0.78125c0.66406,0.17969 1.74609,0.44531 3.21875,0.78125c1.82813,0.38672 3.5,0.82031 4.96875,1.28125c1.45703,0.46484 2.70703,1.02734 3.6875,1.65625c0.96875,0.625 1.71484,1.40625 2.25,2.34375c0.51172,0.89844 0.78125,2.04297 0.78125,3.46875c0,1.66797 -0.46094,3.14844 -1.40625,4.46875c-0.93359,1.30469 -2.32812,2.35156 -4.21875,3.125c-1.85547,0.76172 -4.14453,1.15625 -6.78125,1.15625c-3.17187,0 -5.75781,-0.53516 -7.71875,-1.5625c-1.41016,-0.75 -2.53906,-1.76172 -3.40625,-3c-0.01172,0 -0.01953,0 -0.03125,0c-0.88672,-1.25391 -1.28125,-2.42187 -1.28125,-3.5c0,-0.56641 0.19922,-0.98047 0.65625,-1.40625c0.44141,-0.40625 0.93359,-0.59375 1.6875,-0.59375c0.58984,0 1.00781,0.12891 1.375,0.4375c0.36719,0.30469 0.74609,0.82422 1.0625,1.5625c0.01172,0.01172 0.01953,0.01953 0.03125,0.03125c0.42969,0.97266 0.90234,1.80469 1.4375,2.5c0.5625,0.73438 1.33594,1.3125 2.28125,1.75c1.02734,0.48047 2.27734,0.6875 3.75,0.6875c2.03125,0 3.77734,-0.41797 5.15625,-1.34375c1.32422,-0.89062 2.15625,-2.19922 2.15625,-3.65625c0,-1.10937 -0.43359,-2.14844 -1.21875,-2.875c-0.75781,-0.69922 -1.70312,-1.22266 -2.8125,-1.5625c-1.08984,-0.33594 -2.54687,-0.66406 -4.3125,-1.03125c-2.33203,-0.49219 -4.28906,-1.08203 -5.8125,-1.71875c-1.51953,-0.63672 -2.67969,-1.51172 -3.53125,-2.5625c-0.83203,-1.02734 -1.28125,-2.26953 -1.28125,-3.875c0,-1.50391 0.44141,-2.8125 1.34375,-3.96875c0.01172,0 0.01953,0 0.03125,0c0.88281,-1.14062 2.17969,-2.06641 3.96875,-2.71875c1.75781,-0.64453 3.91016,-0.96875 6.375,-0.96875z"></path></g></g></svg>