<svg xmlns="http://www.w3.org/2000/svg" xmlns:xlink="http://www.w3.org/1999/xlink" viewBox="0,0,256,256" width="50px" height="50px" fill-rule="nonzero"><g fill="#ffffff" fill-rule="nonzero" stroke="none" stroke-width="1" stroke-linecap="butt" stroke-linejoin="miter" stroke-miterlimit="10" stroke-dasharray="" stroke-dashoffset="0" font-family="none" font-weight="none" font-size="none" text-anchor="none" style="mix-blend-mode: normal"><g transform="scale(5.12,5.12)"><path d="M14.28125,0c-7.87109,0 -14.28125,6.32422 -14.28125,14.09375c0,2.38281 0.62109,4.70703 1.78125,6.78125c-0.27344,1.4375 -0.40625,2.91797 -0.40625,4.375c0,13 10.69922,23.5625 23.875,23.5625c1.35156,0 2.70313,-0.08984 4.03125,-0.3125c1.97656,0.98828 4.19922,1.5 6.4375,1.5c7.87109,0 14.28125,-6.32422 14.28125,-14.09375c0,-2.08594 -0.46094,-4.07812 -1.34375,-5.9375c0.32031,-1.53516 0.5,-3.12109 0.5,-4.71875c0,-12.99609 -10.73047,-23.5625 -23.90625,-23.5625c-1.23828,0 -2.48828,0.09375 -3.71875,0.28125c-2.19531,-1.28516 -4.68359,-1.96875 -7.25,-1.96875zM25.09375,9.375c2.04688,0 3.83984,0.22266 5.34375,0.6875c1.50781,0.46094 2.78516,1.07422 3.78125,1.84375c1.00781,0.77734 1.77734,1.60547 2.25,2.46875c0.47656,0.87109 0.71875,1.75781 0.71875,2.59375c0,0.80859 -0.34375,1.51563 -0.96875,2.15625c-0.625,0.64063 -1.41016,0.96875 -2.34375,0.96875c-0.84766,0 -1.50781,-0.19531 -1.96875,-0.59375c-0.42969,-0.375 -0.88281,-0.94531 -1.375,-1.78125c-0.57031,-1.07031 -1.23828,-1.94141 -2.03125,-2.53125c-0.76953,-0.57422 -2.07812,-0.84375 -3.84375,-0.84375c-1.64062,0 -2.98047,0.29688 -3.96875,0.9375c-0.95703,0.61719 -1.40625,1.34766 -1.40625,2.1875c0,0.51563 0.16016,0.94141 0.46875,1.3125c0.32813,0.39063 0.76172,0.71484 1.34375,1c0.60156,0.29688 1.22266,0.55078 1.84375,0.71875c0.63672,0.17188 1.72266,0.44531 3.1875,0.78125c1.85156,0.39453 3.55469,0.80859 5.0625,1.28125c1.52344,0.48438 2.83203,1.08984 3.90625,1.78125c1.09375,0.70313 1.97656,1.60547 2.59375,2.6875c0.61719,1.08203 0.90625,2.41016 0.90625,3.96875c-0.00391,1.85938 -0.52734,3.54688 -1.59375,5.03125c-1.0625,1.48047 -2.62891,2.67188 -4.65625,3.5c-2.00781,0.82031 -4.41797,1.21875 -7.15625,1.21875c-3.28906,0 -6.03906,-0.55859 -8.1875,-1.6875c-1.53906,-0.81641 -2.82422,-1.94531 -3.78125,-3.3125c-0.97656,-1.38281 -1.46875,-2.73828 -1.46875,-4.0625c0,-0.82422 0.33594,-1.53516 0.96875,-2.125c0.62891,-0.57812 1.41797,-0.875 2.375,-0.875c0.78516,0 1.48047,0.22656 2.03125,0.6875c0.53125,0.44141 0.98047,1.09766 1.34375,1.9375c0.40625,0.91797 0.83984,1.66797 1.3125,2.28125c0.44531,0.58203 1.08203,1.08594 1.90625,1.46875c0.82813,0.39063 1.96484,0.59375 3.34375,0.59375c1.89453,0 3.42969,-0.40234 4.59375,-1.1875c1.14063,-0.76562 1.71875,-1.68359 1.71875,-2.8125c0,-0.89062 -0.3125,-1.60937 -0.90625,-2.15625c-0.625,-0.57422 -1.44531,-1.00781 -2.4375,-1.3125c-1.04297,-0.31641 -2.44141,-0.66797 -4.1875,-1.03125c-2.375,-0.50391 -4.39453,-1.10937 -6,-1.78125c-1.64453,-0.69141 -2.96875,-1.65234 -3.9375,-2.84375c-0.98437,-1.21484 -1.5,-2.71094 -1.5,-4.5c0,-1.70703 0.52734,-3.26953 1.5625,-4.59375c1.01953,-1.3125 2.51172,-2.33203 4.4375,-3.03125c1.89844,-0.69531 4.16406,-1.03125 6.71875,-1.03125z"></path></g></g></svg>