<svg xmlns="http://www.w3.org/2000/svg" xmlns:xlink="http://www.w3.org/1999/xlink" viewBox="0,0,256,256" width="50px" height="50px" fill-rule="nonzero"><g fill="#ffffff" fill-rule="nonzero" stroke="none" stroke-width="1" stroke-linecap="butt" stroke-linejoin="miter" stroke-miterlimit="10" stroke-dasharray="" stroke-dashoffset="0" font-family="none" font-weight="none" font-size="none" text-anchor="none" style="mix-blend-mode: normal"><g transform="scale(2.56,2.56)"><path d="M32.83203,12.00195c-13.03738,0.06568 -22.13865,11.29018 -22.80273,23.89844c-0.26519,5.02932 1.32457,9.66162 4.04297,13.47656c-0.0298,0.37958 -0.06386,0.75761 -0.08399,1.13867c0,0.00065 0,0.0013 0,0.00195c-1.0564,20.06092 16.49395,35.79877 36.59961,36.80469c1.84123,0.09201 3.6255,-0.005 5.375,-0.19336c3.07324,1.42928 6.44542,2.34888 9.97461,2.52539c13.73457,0.68678 23.39801,-11.02427 24.07422,-23.87109c0.22777,-4.32965 -0.94674,-8.3135 -2.94727,-11.76367c0.13596,-1.10635 0.23297,-2.19802 0.31836,-3.23047v-0.00195c1.8019,-21.73092 -16.02494,-37.13194 -36.7207,-36.86523c-2.29473,0.02999 -4.61138,0.08801 -6.94336,0.43359c-2.98059,-1.31709 -6.22538,-2.15518 -9.61328,-2.32422c-0.4286,-0.02143 -0.85288,-0.03142 -1.27344,-0.0293zM32.8457,16.00195c0.34936,-0.00149 0.70226,0.00562 1.05859,0.02344c0.00065,0 0.0013,0 0.00195,0c3.06383,0.15287 6.01546,0.90772 8.66992,2.15039c0.37326,0.17483 0.79141,0.23009 1.19727,0.1582c2.07857,-0.36886 4.39805,-0.37891 6.93945,-0.41211c9.98225,-0.12864 19.06653,3.60497 25.13086,10.0625l-2.70117,4.50195c-0.19842,0.3069 -0.21364,0.69759 -0.0397,1.019c0.17394,0.32141 0.50935,0.52235 0.8748,0.52408c0.36545,0.00174 0.70275,-0.196 0.87975,-0.51574l2.36328,-3.93945c0.90096,1.11273 1.72212,2.28937 2.44727,3.53516l-2.46875,3.29102c-0.33115,0.44226 -0.24109,1.06924 0.20117,1.40039c0.44226,0.33115 1.06924,0.24109 1.40039,-0.20117l1.89844,-2.53125c0.52975,1.10398 0.99621,2.24681 1.38281,3.43555l-2.78906,2.78906c-0.26124,0.25082 -0.36648,0.62327 -0.27512,0.97371c0.09136,0.35044 0.36503,0.62411 0.71547,0.71547c0.35044,0.09136 0.72289,-0.01388 0.97371,-0.27512l1.99023,-1.99023c0.37813,1.58928 0.62734,3.24253 0.73828,4.95508l-2.03516,1.52734c-0.44226,0.33115 -0.53233,0.95813 -0.20117,1.40039c0.33115,0.44226 0.95813,0.53233 1.40039,0.20117l0.89844,-0.67383c-0.00983,0.76745 -0.03618,1.54209 -0.10156,2.33008c0,0.00065 0,0.0013 0,0.00195c-0.10357,1.252 -0.18761,2.44118 -0.34766,3.56055c-0.06721,0.47143 0.03598,0.95137 0.29102,1.35352c1.8726,2.95669 2.87766,6.3989 2.67773,10.19922c-0.5798,11.01518 -8.49743,20.65515 -19.88086,20.08594c-3.17956,-0.15902 -6.24274,-0.98195 -8.97461,-2.32812c-0.35019,-0.17283 -0.7433,-0.23936 -1.13086,-0.19141c-0.51779,0.06454 -1.04321,0.11123 -1.57227,0.14844l0.51172,-2.04492c0.07821,-0.29512 0.01733,-0.6098 -0.16531,-0.85445c-0.18263,-0.24465 -0.46702,-0.39249 -0.77219,-0.40141c-0.47554,-0.01436 -0.89537,0.30827 -1.00391,0.77148l-0.65039,2.60352c-0.52618,0.0006 -1.05517,-0.00834 -1.5918,-0.03516c-1.07097,-0.05358 -2.13142,-0.15748 -3.18164,-0.30078l1.28906,-2.57812c0.16492,-0.3182 0.14697,-0.70032 -0.04706,-1.00165c-0.19403,-0.30133 -0.53447,-0.4758 -0.89239,-0.45733c-0.36508,0.01873 -0.69085,0.23517 -0.84961,0.56445l-1.56641,3.13281c-1.11594,-0.21645 -2.21649,-0.48364 -3.29687,-0.79687l0.73828,-3.69336c0.06377,-0.29836 -0.01213,-0.60952 -0.20614,-0.84499c-0.19401,-0.23547 -0.4849,-0.36951 -0.78995,-0.36399c-0.47522,0.00886 -0.87855,0.35096 -0.96484,0.81836l-0.69336,3.46875c-1.13587,-0.3968 -2.24514,-0.84825 -3.32617,-1.34766v-2.92578c0.0037,-0.2703 -0.10218,-0.53059 -0.29351,-0.72155c-0.19133,-0.19097 -0.45182,-0.29634 -0.72212,-0.29212c-0.55152,0.00862 -0.99193,0.46214 -0.98437,1.01367v1.93555c-1.20283,-0.64702 -2.35743,-1.36123 -3.4668,-2.13086l1.39453,-3.48438c0.13118,-0.31427 0.09343,-0.6737 -0.10019,-0.95385c-0.19362,-0.28015 -0.51649,-0.44253 -0.85684,-0.43092c-0.40085,0.01406 -0.75452,0.26624 -0.89844,0.64063l-1.20117,3.00391c-1.20471,-0.94506 -2.33788,-1.9639 -3.39258,-3.04883l1.35352,-2.0293c0.21326,-0.31011 0.23436,-0.7137 0.0546,-1.04436c-0.17976,-0.33066 -0.52994,-0.5324 -0.90616,-0.52205c-0.32962,0.00908 -0.63357,0.18006 -0.8125,0.45703l-1.08203,1.62305c-0.78759,-0.91948 -1.51482,-1.88341 -2.1875,-2.88086l1.90234,-2.53516c0.23022,-0.29785 0.27368,-0.69975 0.11245,-1.03993c-0.16122,-0.34018 -0.49982,-0.56101 -0.87612,-0.5714c-0.33022,-0.00945 -0.6438,0.14478 -0.83789,0.41211l-1.43555,1.91602c-0.77086,-1.33818 -1.43623,-2.73366 -1.98633,-4.17969l3.05469,-4.58203c0.21326,-0.31011 0.23436,-0.7137 0.0546,-1.04436c-0.17976,-0.33066 -0.52994,-0.5324 -0.90616,-0.52205c-0.32962,0.00908 -0.63357,0.18006 -0.8125,0.45703l-2.18555,3.2793c-0.40284,-1.43729 -0.69541,-2.91514 -0.86328,-4.42969l3.58789,-3.58789c0.29576,-0.28749 0.38469,-0.72707 0.22393,-1.10691c-0.16075,-0.37985 -0.53821,-0.62204 -0.9505,-0.60988c-0.2598,0.00774 -0.50638,0.11632 -0.6875,0.30273l-2.33984,2.33984c-0.00928,-0.63096 -0.00445,-1.26546 0.0293,-1.90625c0.02955,-0.55962 0.07064,-1.11638 0.12305,-1.67187c0.04763,-0.50389 -0.09754,-1.00711 -0.40625,-1.4082c-2.50821,-3.25731 -3.90461,-7.19544 -3.67578,-11.53516c0.57204,-10.86068 7.99228,-20.06315 18.82227,-20.10937zM51.07422,25.37695c-3.24935,0.07319 -7.13598,1.01207 -12.11914,3.50391c-2.57578,1.28789 -4.34753,3.55947 -5.52734,5.88867c-1.17981,2.3292 -1.78189,4.72883 -1.96875,6.48047c-0.22352,2.09524 0.86037,4.75938 3.25586,7.21484c2.39549,2.45546 6.16749,4.63859 11.48242,5.46094c5.11679,0.79169 8.56722,1.39602 10.54102,2.25977c0.9869,0.43187 1.58038,0.8967 1.94922,1.44336c0.36884,0.54666 0.55859,1.23098 0.55859,2.25781c0,2.13865 -0.51975,3.53554 -1.71094,4.49219c-1.19118,0.95664 -3.25711,1.53458 -6.5293,1.45703c-3.02082,-0.07204 -4.56193,-1.70856 -6.05078,-3.75c-1.48853,-2.04099 -2.69954,-4.56276 -5.21875,-5.45703h-0.00195c-2.10211,-0.74597 -4.32313,-1.19304 -6.30273,-0.87891c-1.98017,0.31422 -3.76156,1.62381 -4.27148,3.91992c-0.66468,2.99509 0.7065,5.68407 2.71875,7.77734c2.01225,2.09328 4.69878,3.72562 7.07617,4.91406c4.41746,2.20873 13.35043,2.9946 19.07813,2.41602c3.01693,-0.30476 6.47644,-1.80154 9.33984,-4.00195c2.8634,-2.20041 5.17245,-5.13992 5.45313,-8.49023c0.52302,-6.23052 -2.42144,-12.33638 -7.49805,-14.875h-0.00195c-4.63107,-2.31481 -11.2429,-2.43818 -16.25586,-4.65234c-2.61255,-1.15393 -4.20054,-2.09148 -4.71289,-2.77539c-0.25617,-0.34195 -0.3163,-0.56009 -0.26562,-0.95703c0.05067,-0.39694 0.28573,-0.98911 0.7832,-1.75977c0.53059,-0.82197 1.46235,-1.44191 2.60156,-1.85742l-0.42578,1.27539c-0.11314,0.33915 -0.03671,0.71289 0.20047,0.98041c0.23718,0.26752 0.59909,0.38815 0.94934,0.31645c0.35026,-0.0717 0.63564,-0.32485 0.74862,-0.66405l0.81055,-2.43359c0.6144,-0.07467 1.2335,-0.09474 1.8457,-0.08594l-1.5332,3.83203c-0.1508,0.33505 -0.10574,0.72582 0.11736,1.01775c0.22311,0.29193 0.58833,0.43802 0.95122,0.38049c0.36289,-0.05753 0.66502,-0.30942 0.78688,-0.65605l1.75781,-4.39453c0.60336,0.09816 1.16374,0.21642 1.58984,0.37109c0.57179,0.20764 1.04446,0.46213 1.45898,0.74805l-1.56641,2.34961c-0.20495,0.29723 -0.23379,0.68184 -0.07547,1.00631c0.15833,0.32447 0.47925,0.53841 0.83965,0.55977c0.36041,0.02135 0.70434,-0.1532 0.89988,-0.4567l1.36133,-2.04297c0.25996,0.34139 0.49781,0.69924 0.72852,1.07031c0.26084,0.41955 0.51748,0.85898 0.78711,1.29492l-1.41602,1.41602c-0.26124,0.25082 -0.36648,0.62327 -0.27512,0.97371c0.09136,0.35044 0.36503,0.62411 0.71547,0.71547c0.35044,0.09136 0.72289,-0.01388 0.97371,-0.27512l1.24219,-1.24219c0.34324,0.31679 0.73474,0.59667 1.20898,0.80664c0.00065,0 0.0013,0 0.00195,0c1.76263,0.77973 3.98287,0.35968 5.79102,-0.64258c0.90408,-0.50113 1.71168,-1.17765 2.22656,-2.07422c0.51489,-0.89657 0.67938,-2.05056 0.27539,-3.16992c-1.41993,-3.93228 -5.91322,-7.24498 -11.08203,-9.3125c-2.43611,-0.97455 -5.04753,-1.7685 -8.29687,-1.69531zM51.08008,27.29492c2.9079,-0.06981 5.20294,0.69436 7.54883,1.63281c4.83119,1.93248 8.88329,5.20099 9.94336,8.13672c0.21551,0.59714 0.14174,1.02287 -0.12891,1.49414c-0.27065,0.47127 -0.79584,0.95057 -1.46289,1.32031c-1.3341,0.73949 -3.20635,0.92072 -4.01172,0.56445c-0.86505,-0.38301 -1.44481,-1.46579 -2.34766,-2.91797c-0.90285,-1.45217 -2.20551,-3.16385 -4.66406,-4.05664c-1.71589,-0.62281 -4.15738,-0.87721 -6.57227,-0.56055c-2.41489,0.31667 -4.86486,1.21842 -6.19141,3.27344c-0.58603,0.90784 -0.97469,1.73366 -1.08398,2.58984c-0.1093,0.85618 0.13403,1.72611 0.64648,2.41016c1.0249,1.36809 2.83641,2.22718 5.50586,3.40625c5.55047,2.45158 12.24702,2.6489 16.17188,4.61133c4.18852,2.09381 6.85937,7.42902 6.39844,12.91992c-0.21033,2.51068 -2.09389,5.08473 -4.67773,7.07031c-2.58385,1.98559 -5.8252,3.34541 -8.32227,3.59766c-5.30031,0.53541 -14.43588,-0.44157 -17.98242,-2.21484c-2.25561,-1.12756 -4.77929,-2.68929 -6.5293,-4.50977c-1.75,-1.82047 -2.69435,-3.76307 -2.20703,-5.95898c0.35308,-1.58989 1.19898,-2.15138 2.63281,-2.37891c1.43383,-0.22753 3.414,0.11241 5.32031,0.78906c1.48965,0.52825 2.67254,2.55689 4.27344,4.75195c1.60089,2.19506 3.84696,4.48035 7.61914,4.57031c3.52082,0.08345 6.08506,-0.49663 7.82813,-1.89648c1.74307,-1.39986 2.45898,-3.55838 2.45898,-6.05273c0,-1.28966 -0.26417,-2.43399 -0.90039,-3.37695c-0.63622,-0.94296 -1.59784,-1.62812 -2.80469,-2.15625c-2.41371,-1.05625 -5.91186,-1.61099 -11.03906,-2.4043c-4.92907,-0.76265 -8.27721,-2.75057 -10.35547,-4.88086c-2.07826,-2.13029 -2.8207,-4.46671 -2.69922,-5.60547c0.15814,-1.48236 0.71518,-3.71526 1.76563,-5.78906c1.05044,-2.0738 2.5805,-3.9758 4.63672,-5.00391c4.80183,-2.40116 8.32257,-3.30519 11.23047,-3.375zM20.38867,33.90625c-0.38672,-0.04791 -0.78323,0.13369 -0.99023,0.49219c-0.276,0.478 -0.11277,1.08923 0.36523,1.36523c0.478,0.276 1.09119,0.11277 1.36719,-0.36523c0.276,-0.478 0.11081,-1.09119 -0.36719,-1.36719c-0.1195,-0.069 -0.24609,-0.10903 -0.375,-0.125zM24.22656,38.30859c-0.38672,-0.04791 -0.78323,0.13369 -0.99023,0.49219c-0.276,0.478 -0.11277,1.09119 0.36523,1.36719c0.478,0.276 1.09119,0.11081 1.36719,-0.36719c0.276,-0.478 0.11081,-1.08923 -0.36719,-1.36523c-0.1195,-0.069 -0.24609,-0.11098 -0.375,-0.12695zM17.14063,39.02344c-0.38672,-0.04791 -0.78323,0.13369 -0.99023,0.49219c-0.276,0.478 -0.11277,1.09119 0.36523,1.36719c0.478,0.276 1.09119,0.11081 1.36719,-0.36719c0.276,-0.478 0.11081,-1.08923 -0.36719,-1.36523c-0.1195,-0.069 -0.24609,-0.11098 -0.375,-0.12695zM77.48633,60.75977c-0.38672,-0.04791 -0.78323,0.13369 -0.99023,0.49219c-0.276,0.478 -0.11081,1.08923 0.36719,1.36523c0.478,0.276 1.08924,0.11277 1.36523,-0.36523c0.276,-0.478 0.11276,-1.08923 -0.36523,-1.36523c-0.1195,-0.069 -0.24805,-0.11098 -0.37695,-0.12695zM82.60547,64.00781c-0.38672,-0.04791 -0.78324,0.13369 -0.99023,0.49219c-0.276,0.478 -0.11276,1.08923 0.36523,1.36523c0.478,0.276 1.09119,0.11277 1.36719,-0.36523c0.276,-0.478 0.11081,-1.08923 -0.36719,-1.36523c-0.1195,-0.069 -0.24609,-0.11098 -0.375,-0.12695zM78.20117,67.8457c-0.38672,-0.04791 -0.78128,0.13369 -0.98828,0.49219c-0.276,0.477 -0.11277,1.08923 0.36523,1.36523c0.478,0.276 1.08923,0.11277 1.36523,-0.36523c0.276,-0.478 0.11277,-1.08924 -0.36523,-1.36523c-0.1195,-0.069 -0.24805,-0.11098 -0.37695,-0.12695z"></path></g></g></svg>