<svg xmlns="http://www.w3.org/2000/svg"  viewBox="0 0 100 100" width="50px" height="50px"><path d="M 32.832031 12.001953 C 19.794646 12.06763 10.693382 23.292135 10.029297 35.900391 C 9.7641031 40.929711 11.35387 45.562011 14.072266 49.376953 C 14.042466 49.75653 14.008411 50.134567 13.988281 50.515625 A 2.0002 2.0002 0 0 0 13.988281 50.517578 C 12.931883 70.578502 30.482229 86.316352 50.587891 87.322266 C 52.429122 87.414276 54.213388 87.317266 55.962891 87.128906 C 59.03613 88.558185 62.408306 89.477786 65.9375 89.654297 C 79.672074 90.34108 89.335513 78.630028 90.011719 65.783203 C 90.239487 61.453549 89.064981 57.469698 87.064453 54.019531 C 87.200414 52.913178 87.29742 51.821513 87.382812 50.789062 L 87.382812 50.787109 C 89.184709 29.056187 71.357872 13.655172 50.662109 13.921875 C 48.367383 13.951865 46.050724 14.009885 43.71875 14.355469 C 40.738161 13.038374 37.493366 12.200288 34.105469 12.03125 C 33.676867 12.009818 33.252592 11.999835 32.832031 12.001953 z M 32.845703 16.001953 C 33.195058 16.000462 33.547962 16.007572 33.904297 16.025391 A 2.0002 2.0002 0 0 0 33.90625 16.025391 C 36.970077 16.17826 39.921709 16.93311 42.576172 18.175781 A 2.0002 2.0002 0 0 0 43.773438 18.333984 C 45.852007 17.965119 48.171483 17.955078 50.712891 17.921875 C 60.695142 17.793235 69.779419 21.526848 75.84375 27.984375 L 73.142578 32.486328 A 1.0001 1.0001 0 1 0 74.857422 33.513672 L 77.220703 29.574219 C 78.121662 30.686952 78.942822 31.863585 79.667969 33.109375 L 77.199219 36.400391 A 1.0003905 1.0003905 0 0 0 78.800781 37.599609 L 80.699219 35.068359 C 81.228967 36.172335 81.69543 37.315167 82.082031 38.503906 L 79.292969 41.292969 A 1.0001 1.0001 0 1 0 80.707031 42.707031 L 82.697266 40.716797 C 83.075392 42.306077 83.324607 43.959325 83.435547 45.671875 L 81.400391 47.199219 A 1.0003905 1.0003905 0 0 0 82.599609 48.800781 L 83.498047 48.126953 C 83.488215 48.894398 83.461866 49.66904 83.396484 50.457031 A 2.0002 2.0002 0 0 0 83.396484 50.458984 C 83.292913 51.710985 83.208869 52.900162 83.048828 54.019531 A 2.0002 2.0002 0 0 0 83.339844 55.373047 C 85.212442 58.329733 86.2175 61.771943 86.017578 65.572266 C 85.437783 76.587441 77.520144 86.22742 66.136719 85.658203 C 62.957156 85.499179 59.893976 84.676255 57.162109 83.330078 A 2.0002 2.0002 0 0 0 56.03125 83.138672 C 55.513457 83.203217 54.988039 83.249903 54.458984 83.287109 L 54.970703 81.242188 A 1.0001 1.0001 0 0 0 54.033203 79.986328 A 1.0001 1.0001 0 0 0 53.029297 80.757812 L 52.378906 83.361328 C 51.852721 83.361929 51.323731 83.352989 50.787109 83.326172 C 49.716144 83.27259 48.655686 83.168689 47.605469 83.025391 L 48.894531 80.447266 A 1.0001 1.0001 0 0 0 47.955078 78.988281 A 1.0001 1.0001 0 0 0 47.105469 79.552734 L 45.539062 82.685547 C 44.423119 82.469096 43.322571 82.201904 42.242188 81.888672 L 42.980469 78.195312 A 1.0001 1.0001 0 0 0 41.984375 76.986328 A 1.0001 1.0001 0 0 0 41.019531 77.804688 L 40.326172 81.273438 C 39.190297 80.876637 38.081035 80.42519 37 79.925781 L 37 77 A 1.0001 1.0001 0 0 0 35.984375 75.986328 A 1.0001 1.0001 0 0 0 35 77 L 35 78.935547 C 33.797172 78.288527 32.642568 77.57432 31.533203 76.804688 L 32.927734 73.320312 A 1.0001 1.0001 0 0 0 31.970703 71.935547 A 1.0001 1.0001 0 0 0 31.072266 72.576172 L 29.871094 75.580078 C 28.666387 74.635014 27.533214 73.616176 26.478516 72.53125 L 27.832031 70.501953 A 1.0001 1.0001 0 0 0 26.980469 68.935547 A 1.0001 1.0001 0 0 0 26.167969 69.392578 L 25.085938 71.015625 C 24.29835 70.096143 23.571114 69.132214 22.898438 68.134766 L 24.800781 65.599609 A 1.0001 1.0001 0 0 0 24.037109 63.988281 A 1.0001 1.0001 0 0 0 23.199219 64.400391 L 21.763672 66.316406 C 20.992813 64.978225 20.327446 63.582744 19.777344 62.136719 L 22.832031 57.554688 A 1.0001 1.0001 0 0 0 21.980469 55.988281 A 1.0001 1.0001 0 0 0 21.167969 56.445312 L 18.982422 59.724609 C 18.579578 58.287314 18.287014 56.80947 18.119141 55.294922 L 21.707031 51.707031 A 1.0001 1.0001 0 0 0 20.980469 49.990234 A 1.0001 1.0001 0 0 0 20.292969 50.292969 L 17.953125 52.632812 C 17.943845 52.001855 17.948678 51.367349 17.982422 50.726562 C 18.011972 50.166945 18.053062 49.61018 18.105469 49.054688 A 2.0002 2.0002 0 0 0 17.699219 47.646484 C 15.191014 44.38917 13.794605 40.451043 14.023438 36.111328 C 14.595477 25.250647 22.015715 16.048179 32.845703 16.001953 z M 51.074219 25.376953 C 47.82487 25.450143 43.938243 26.389022 38.955078 28.880859 C 36.379298 30.16875 34.607544 32.44033 33.427734 34.769531 C 32.247925 37.098732 31.645847 39.498362 31.458984 41.25 C 31.235466 43.345245 32.319354 46.009384 34.714844 48.464844 C 37.110333 50.920304 40.882332 53.10343 46.197266 53.925781 C 51.314059 54.717476 54.764487 55.321801 56.738281 56.185547 C 57.725179 56.61742 58.318662 57.082243 58.6875 57.628906 C 59.056338 58.175569 59.246094 58.859881 59.246094 59.886719 C 59.246094 62.025364 58.726341 63.422264 57.535156 64.378906 C 56.343972 65.335548 54.278043 65.913491 51.005859 65.835938 C 47.985036 65.763897 46.443934 64.127375 44.955078 62.085938 C 43.466553 60.04495 42.25554 57.52318 39.736328 56.628906 L 39.734375 56.628906 C 37.632269 55.882939 35.411242 55.435867 33.431641 55.75 C 31.451474 56.064222 29.670076 57.373808 29.160156 59.669922 C 28.495479 62.66501 29.866659 65.353988 31.878906 67.447266 C 33.891154 69.540543 36.577687 71.172889 38.955078 72.361328 C 43.372537 74.570057 52.30551 75.35593 58.033203 74.777344 C 61.050136 74.472587 64.509643 72.975805 67.373047 70.775391 C 70.236451 68.574976 72.545502 65.635473 72.826172 62.285156 C 73.349191 56.054637 70.404735 49.948773 65.328125 47.410156 L 65.326172 47.410156 C 60.695105 45.095345 54.083273 44.971981 49.070312 42.757812 C 46.457762 41.603879 44.86977 40.666331 44.357422 39.982422 C 44.101248 39.640467 44.041125 39.422333 44.091797 39.025391 C 44.142467 38.628448 44.377528 38.036281 44.875 37.265625 C 45.405593 36.443659 46.337349 35.823711 47.476562 35.408203 L 47.050781 36.683594 A 1.0005646 1.0005646 0 1 0 48.949219 37.316406 L 49.759766 34.882812 C 50.374163 34.808142 50.993268 34.788068 51.605469 34.796875 L 50.072266 38.628906 A 1.0001 1.0001 0 1 0 51.927734 39.371094 L 53.685547 34.976562 C 54.288911 35.074719 54.849285 35.192979 55.275391 35.347656 C 55.847183 35.555296 56.319847 35.80979 56.734375 36.095703 L 55.167969 38.445312 A 1.0001 1.0001 0 1 0 56.832031 39.554688 L 58.193359 37.511719 C 58.453321 37.853106 58.691173 38.210961 58.921875 38.582031 C 59.182717 39.00158 59.439351 39.44101 59.708984 39.876953 L 58.292969 41.292969 A 1.0001 1.0001 0 1 0 59.707031 42.707031 L 60.949219 41.464844 C 61.292462 41.781639 61.683957 42.061509 62.158203 42.271484 A 1.0001 1.0001 0 0 0 62.160156 42.271484 C 63.92279 43.051216 66.143021 42.631165 67.951172 41.628906 C 68.855248 41.127777 69.662849 40.451256 70.177734 39.554688 C 70.69262 38.658119 70.857112 37.504127 70.453125 36.384766 C 69.0332 32.452489 64.539906 29.13979 59.371094 27.072266 C 56.934981 26.097718 54.323568 25.303762 51.074219 25.376953 z M 51.080078 27.294922 C 53.987979 27.225112 56.283019 27.989282 58.628906 28.927734 C 63.460094 30.86021 67.512191 34.128729 68.572266 37.064453 C 68.787778 37.661592 68.714005 38.087319 68.443359 38.558594 C 68.172713 39.029869 67.647518 39.509161 66.980469 39.878906 C 65.64637 40.618398 63.774117 40.799627 62.96875 40.443359 C 62.103701 40.060353 61.523941 38.977565 60.621094 37.525391 C 59.718247 36.073216 58.415579 34.361544 55.957031 33.46875 C 54.241143 32.845937 51.799651 32.591539 49.384766 32.908203 C 46.96988 33.224868 44.519907 34.126624 43.193359 36.181641 C 42.607331 37.089484 42.218672 37.915302 42.109375 38.771484 C 42.000078 39.627667 42.243409 40.497595 42.755859 41.181641 C 43.780761 42.549732 45.59227 43.408825 48.261719 44.587891 C 53.81219 47.039471 60.508737 47.23679 64.433594 49.199219 C 68.622116 51.293028 71.292964 56.628238 70.832031 62.119141 C 70.621701 64.629824 68.738143 67.203868 66.154297 69.189453 C 63.570451 71.175038 60.329099 72.534867 57.832031 72.787109 C 52.531724 73.322523 43.396151 72.345536 39.849609 70.572266 C 37.594001 69.444705 35.070316 67.882973 33.320312 66.0625 C 31.570311 64.242027 30.625959 62.299427 31.113281 60.103516 C 31.466362 58.51363 32.31226 57.952137 33.746094 57.724609 C 35.179927 57.497082 37.160093 57.837023 39.066406 58.513672 C 40.556056 59.041922 41.738949 61.070564 43.339844 63.265625 C 44.940738 65.460686 47.186808 67.745977 50.958984 67.835938 C 54.479801 67.919387 57.044044 67.339311 58.787109 65.939453 C 60.530175 64.539595 61.246094 62.381073 61.246094 59.886719 C 61.246094 58.597056 60.981928 57.452728 60.345703 56.509766 C 59.709479 55.566803 58.747868 54.881643 57.541016 54.353516 C 55.12731 53.297262 51.62916 52.742524 46.501953 51.949219 C 41.572886 51.18657 38.224745 49.198649 36.146484 47.068359 C 34.068224 44.93807 33.325784 42.601646 33.447266 41.462891 C 33.605403 39.980529 34.16245 37.747627 35.212891 35.673828 C 36.263331 33.600029 37.79339 31.698032 39.849609 30.669922 C 44.651444 28.268759 48.172177 27.364731 51.080078 27.294922 z M 20.388672 33.90625 C 20.001953 33.858344 19.605438 34.039938 19.398438 34.398438 C 19.122438 34.876438 19.285672 35.487672 19.763672 35.763672 C 20.241672 36.039672 20.854859 35.876437 21.130859 35.398438 C 21.406859 34.920437 21.241672 34.30725 20.763672 34.03125 C 20.644172 33.96225 20.517578 33.922219 20.388672 33.90625 z M 24.226562 38.308594 C 23.839844 38.260687 23.443328 38.442281 23.236328 38.800781 C 22.960328 39.278781 23.123562 39.891969 23.601562 40.167969 C 24.079562 40.443969 24.69275 40.278781 24.96875 39.800781 C 25.24475 39.322781 25.079562 38.711547 24.601562 38.435547 C 24.482063 38.366547 24.355469 38.324562 24.226562 38.308594 z M 17.140625 39.023438 C 16.753906 38.975531 16.357391 39.157125 16.150391 39.515625 C 15.874391 39.993625 16.037625 40.606812 16.515625 40.882812 C 16.993625 41.158813 17.606813 40.993625 17.882812 40.515625 C 18.158813 40.037625 17.993625 39.426391 17.515625 39.150391 C 17.396125 39.081391 17.269531 39.039406 17.140625 39.023438 z M 77.486328 60.759766 C 77.099609 60.711859 76.703094 60.893453 76.496094 61.251953 C 76.220094 61.729953 76.385281 62.341187 76.863281 62.617188 C 77.341281 62.893187 77.952516 62.729953 78.228516 62.251953 C 78.504516 61.773953 78.341281 61.162719 77.863281 60.886719 C 77.743781 60.817719 77.615234 60.775734 77.486328 60.759766 z M 82.605469 64.007812 C 82.21875 63.959906 81.822234 64.1415 81.615234 64.5 C 81.339234 64.978 81.502469 65.589234 81.980469 65.865234 C 82.458469 66.141234 83.071656 65.978 83.347656 65.5 C 83.623656 65.022 83.458469 64.410766 82.980469 64.134766 C 82.860969 64.065766 82.734375 64.023781 82.605469 64.007812 z M 78.201172 67.845703 C 77.814453 67.797797 77.419891 67.979391 77.212891 68.337891 C 76.936891 68.814891 77.100125 69.427125 77.578125 69.703125 C 78.056125 69.979125 78.667359 69.815891 78.943359 69.337891 C 79.219359 68.859891 79.056125 68.248656 78.578125 67.972656 C 78.458625 67.903656 78.330078 67.861672 78.201172 67.845703 z"/></svg>