<svg viewBox="0 0 100 100" xml:space="preserve" xmlns="http://www.w3.org/2000/svg"><path d="M78.142 15.358H21.858a6.508 6.508 0 0 0-6.5 6.5v56.284c0 3.584 2.916 6.5 6.5 6.5h30.473a.5.5 0 0 0 .5-.5V57.699a.5.5 0 0 0-.5-.5h-8.398v-9.305h8.398a.5.5 0 0 0 .5-.5v-7.6c0-8.217 4.768-13.122 12.754-13.122 3.24 0 6.138.211 7.452.351v8.272l-4.957.002c-4.928 0-5.607 2.652-5.607 5.517v6.58a.5.5 0 0 0 .5.5h9.636l-1.2 9.305h-8.437a.5.5 0 0 0-.5.5v26.443a.5.5 0 0 0 .5.5h15.169c3.584 0 6.5-2.916 6.5-6.5V21.858a6.506 6.506 0 0 0-6.499-6.5zm5.5 62.784c0 3.033-2.467 5.5-5.5 5.5H63.473V58.199h8.376a.5.5 0 0 0 .496-.436l1.329-10.305a.5.5 0 0 0-.496-.564h-9.705v-6.08c0-2.861.754-4.517 4.607-4.517l5.457-.002a.5.5 0 0 0 .5-.5v-9.217a.5.5 0 0 0-.435-.496c-1.011-.134-4.3-.41-8.018-.41-8.484 0-13.754 5.411-13.754 14.122v7.1h-8.398a.5.5 0 0 0-.5.5v10.305a.5.5 0 0 0 .5.5h8.398v25.443H21.858a5.506 5.506 0 0 1-5.5-5.5V21.858c0-3.033 2.467-5.5 5.5-5.5h56.284c3.033 0 5.5 2.467 5.5 5.5v56.284z" fill="#ffffff" class="fill-000000"></path></svg>