<svg data-name="Layer 1" viewBox="0 0 100 100" xmlns="http://www.w3.org/2000/svg"><path d="M95 89.06a14.07 14.07 0 0 0-8.68-13l-16.89-7a7 7 0 0 1-4.34-6.5v-8.31l5.36-5.36a7 7 0 0 0 2.06-5V27.48a22.5 22.5 0 0 0-45 0v16.44a7 7 0 0 0 2.06 5l5.36 5.36v8.32a7 7 0 0 1-4.34 6.5l-16.89 7A14.07 14.07 0 0 0 5 89.06V95h90v-5.94ZM30.31 43.92V27.49a19.69 19.69 0 0 1 39.37 0v16.43a4.19 4.19 0 0 1-1.24 3l-9.94 9.94a4.19 4.19 0 0 1-3 1.24H44.47a4.19 4.19 0 0 1-3-1.24l-9.94-9.94a4.19 4.19 0 0 1-1.22-3Zm61.88 48.27H7.81v-3.13a11.26 11.26 0 0 1 6.95-10.39l16.89-7a9.85 9.85 0 0 0 6.08-9.09v-5.51l1.77 1.77a7 7 0 0 0 5 2.06h11.03a7 7 0 0 0 5-2.06l1.77-1.77v5.51a9.85 9.85 0 0 0 6.08 9.1l16.89 7a11.26 11.26 0 0 1 6.95 10.39v2.81Z" fill="#ffffff" class="fill-000000"></path></svg>