<svg viewBox="0 0 200 200" xml:space="preserve" xmlns="http://www.w3.org/2000/svg" enable-background="new 0 0 200 200"><linearGradient gradientTransform="rotate(-56.551 437.27 -328.7)" gradientUnits="userSpaceOnUse" id="a" x1="-97.13" x2="-76.558" y1="-438.358" y2="-438.358"><stop offset="0" stop-color="#ffffff" class="stop-color-f7931e"></stop><stop offset="1" stop-color="#00bbb8" class="stop-color-af1259"></stop></linearGradient><circle cx="56.9" cy="48.2" r="10.3" fill="url(#a)" class="fillurl(-a)"></circle><linearGradient gradientTransform="rotate(-56.551 437.27 -328.7)" gradientUnits="userSpaceOnUse" id="b" x1="-98.871" x2="-90.461" y1="-461.231" y2="-461.231"><stop offset="0" stop-color="#ffffff" class="stop-color-f7931e"></stop><stop offset="1" stop-color="#00bbb8" class="stop-color-af1259"></stop></linearGradient><circle cx="33.5" cy="42.1" r="4.2" fill="url(#b)" class="fillurl(-b)"></circle><linearGradient gradientTransform="rotate(-56.551 437.27 -328.7)" gradientUnits="userSpaceOnUse" id="c" x1="-113.727" x2="-105.317" y1="-282.127" y2="-282.127"><stop offset="0" stop-color="#ffffff" class="stop-color-f7931e"></stop><stop offset="1" stop-color="#00bbb8" class="stop-color-af1259"></stop></linearGradient><circle cx="174.7" cy="153.2" r="4.2" fill="url(#c)" class="fillurl(-c)"></circle><linearGradient gradientTransform="rotate(-56.551 437.27 -328.7)" gradientUnits="userSpaceOnUse" id="d" x1="-106.323" x2="-89.656" y1="-299.734" y2="-299.734"><stop offset="0" stop-color="#ffffff" class="stop-color-f7931e"></stop><stop offset="1" stop-color="#00bbb8" class="stop-color-af1259"></stop></linearGradient><circle cx="166.4" cy="133.9" r="8.3" fill="url(#d)" class="fillurl(-d)"></circle><linearGradient gradientTransform="rotate(-56.551 437.27 -328.7)" gradientUnits="userSpaceOnUse" id="e" x1="-175.63" x2="-166.673" y1="-329.008" y2="-329.008"><stop offset="0" stop-color="#ffffff" class="stop-color-f7931e"></stop><stop offset="1" stop-color="#00bbb8" class="stop-color-af1259"></stop></linearGradient><circle cx="101.7" cy="178.8" r="4.5" fill="url(#e)" class="fillurl(-e)"></circle><linearGradient gradientTransform="rotate(-56.551 437.27 -328.7)" gradientUnits="userSpaceOnUse" id="f" x1="-37.604" x2="-28.647" y1="-327.229" y2="-327.229"><stop offset="0" stop-color="#ffffff" class="stop-color-f7931e"></stop><stop offset="1" stop-color="#00bbb8" class="stop-color-af1259"></stop></linearGradient><circle cx="179.2" cy="64.6" r="4.5" fill="url(#f)" class="fillurl(-f)"></circle><linearGradient gradientUnits="userSpaceOnUse" id="g" x1="14.251" x2="171.322" y1="95.707" y2="95.707"><stop offset="0" stop-color="#ffffff" class="stop-color-f7931e"></stop><stop offset="1" stop-color="#00bbb8" class="stop-color-af1259"></stop></linearGradient><path d="m165.5 87.6-.3-.3c-4.2-4.1-6.1-9.9-5-15.7 3.2-17.5-4.6-36.1-21.4-45.6-18.8-10.8-43-5.7-56.1 11.7-2.2 2.9-3.9 5.9-5.2 9.1-5.4 12.7-16.2 22.1-29.2 26.6C37.6 76.9 28 84.1 21.6 94.6c-13.9 22.6-7.5 52.7 14.4 67.7 15.5 10.6 34.9 11.3 50.6 3.6 5.5-2.7 11.7-3.2 17.6-1.7 14.7 3.9 30.8-1.7 39.6-15.1 2.7-4.2 4.5-8.7 5.4-13.3 1.3-7.2 5.7-13.6 12-17.1 3.1-1.7 5.8-4.3 7.7-7.8 4.2-7.5 2.8-17.2-3.4-23.3zM117 99h-10.9v36.9H89.7V99h-8.2V86.3h8.2v-7.6c0-10.4 4.6-16.5 17.7-16.5h10.9v12.7h-6.8c-5.1 0-5.4 1.8-5.4 5.1v6.4h12.4L117 99z" fill="url(#g)" class="fillurl(-g)"></path></svg>