<svg width="74" height="56" viewBox="0 0 74 56" fill="none" xmlns="http://www.w3.org/2000/svg">
<path d="M28.7359 16.4136C28.708 16.4019 28.6744 16.4042 28.6349 16.4204C28.556 16.4528 28.5008 16.4869 28.4694 16.5228C28.4056 16.4798 28.3796 16.4444 28.3912 16.4165C28.4226 16.3806 28.4621 16.3644 28.5097 16.368C28.5689 16.3437 28.6263 16.3432 28.682 16.3665C28.7296 16.37 28.7475 16.3857 28.7359 16.4136ZM35.8988 24.2672C35.9393 24.3659 35.9537 24.4292 35.9421 24.457C35.9421 24.457 35.9026 24.4732 35.8236 24.5056C35.7832 24.4069 35.7908 24.3692 35.8464 24.3925C35.9218 24.4077 35.9393 24.3659 35.8988 24.2672ZM34.1268 25.5126C34.0945 25.4336 34.1061 25.4058 34.1618 25.4291C34.2093 25.4326 34.2169 25.3949 34.1846 25.316L34.2453 25.464L34.1268 25.5126ZM32.8969 26.2244L33.0746 26.1516C33.0163 26.2907 33.0151 26.3719 33.0707 26.3952C33.1183 26.3988 33.0846 26.4011 32.9698 26.402L32.8969 26.2244ZM24.7312 33.7228C24.673 33.862 24.5963 33.928 24.5012 33.9209C24.4258 33.9057 24.4083 33.9475 24.4488 34.0462C24.3293 33.9798 24.319 33.9264 24.4177 33.886C24.528 33.8177 24.6325 33.7633 24.7312 33.7228ZM24.3007 34.1069C24.325 34.1661 24.282 34.2298 24.1716 34.2981C24.0729 34.3386 23.9841 34.375 23.9052 34.4074C23.9598 34.3158 24.0168 34.2579 24.076 34.2336C24.1271 34.1896 24.202 34.1473 24.3007 34.1069ZM22.436 35.6323C22.4198 35.5928 22.4512 35.5569 22.5302 35.5245C22.601 35.4724 22.6069 35.4585 22.5476 35.4828L22.4588 35.5192C22.4193 35.5354 22.4118 35.5731 22.436 35.6323ZM22.5817 35.9876L22.4352 36.2206C22.3633 36.1579 22.375 36.13 22.4701 36.1371C22.5769 36.1164 22.6141 36.0666 22.5817 35.9876ZM17.0023 43.6361C16.943 43.6604 16.9256 43.7021 16.9499 43.7613L16.9863 43.8502L17.0037 43.8084C17.027 43.7527 17.0265 43.6953 17.0023 43.6361ZM21.2287 37.58L21.1345 37.6877C21.1031 37.7237 21.0973 37.7376 21.117 37.7295C20.9394 37.8023 20.826 37.9756 20.7769 38.2494C20.7475 38.5151 20.6723 38.7534 20.5513 38.9644C20.7289 38.8916 20.8567 38.7816 20.9347 38.6343C21.0126 38.4871 21.0906 38.3398 21.1686 38.1925C21.2495 38.3899 21.2133 38.5547 21.0599 38.6867C20.9066 38.8188 20.7613 38.9706 20.6241 39.1421C20.4905 39.2661 20.3748 39.4057 20.2771 39.5611C20.191 39.6886 20.1351 39.8614 20.1092 40.0795L20.1457 40.1683C20.0176 40.4745 19.8958 40.8241 19.7803 41.2173C19.6649 41.6105 19.5072 41.9288 19.3072 42.1722C19.2383 42.4541 19.1753 42.722 19.118 42.9761C19.0689 43.2498 18.9937 43.4882 18.8924 43.6911C18.898 43.8733 18.8286 44.0977 18.6843 44.3644C18.5598 44.623 18.4608 44.8596 18.3874 45.0741C18.3185 45.356 18.2281 45.6697 18.1162 46.0154C18.0043 46.361 17.8843 46.6869 17.7562 46.993C17.7966 47.0917 17.7895 47.1869 17.7348 47.2785C17.6999 47.3619 17.6528 47.4158 17.5936 47.4401C17.6331 47.4239 17.647 47.4298 17.6354 47.4576C17.6318 47.5052 17.6184 47.5568 17.5951 47.6124C17.5799 47.6878 17.5607 47.7534 17.5374 47.809C17.4685 48.0909 17.374 48.3948 17.254 48.7207C17.134 49.0466 16.992 49.3469 16.828 49.6217C16.6948 50.2527 16.5099 50.8703 16.2735 51.4745C16.0451 52.0985 15.8284 52.6946 15.6233 53.2629C15.6557 53.3418 15.723 53.3373 15.8253 53.2493L15.9786 53.1172C15.9123 53.2366 15.9029 53.2981 15.9505 53.3017C15.9981 53.3052 15.9928 53.3766 15.9345 53.5157C15.8358 53.5562 15.7523 53.5213 15.684 53.4109C15.6238 53.3203 15.5543 53.2912 15.4753 53.3236C15.5866 53.3702 15.6127 53.4056 15.5535 53.4299C15.4826 53.482 15.4768 53.4959 15.536 53.4716C15.5173 53.5946 15.4707 53.7059 15.3963 53.8056C15.3021 53.9134 15.2021 54.0351 15.0963 54.1707C14.6915 54.083 14.3203 53.9931 13.9828 53.901C13.6255 53.8169 13.2171 53.7768 12.7576 53.7808C12.7773 53.7727 12.793 53.7547 12.8047 53.7269C12.8163 53.6991 12.7763 53.6578 12.6847 53.6032C12.6928 53.6229 12.6911 53.6467 12.6794 53.6745C12.6561 53.7302 12.5987 53.7307 12.5071 53.676L12.4707 53.5872L12.5071 53.676C12.3285 53.634 12.2799 53.5155 12.3614 53.3207C12.2437 52.0778 12.3702 50.8961 12.7409 49.7757C13.0918 48.6634 13.5123 47.5803 14.0024 46.5262C14.3573 45.8734 14.7041 45.2009 15.0428 44.5087C15.4093 43.8281 15.8199 43.1986 16.2745 42.6203L16.2016 42.4426C16.4608 42.1749 16.6526 41.9118 16.7772 41.6532C16.9215 41.3866 17.1151 41.0997 17.3581 40.7925C17.4836 40.6488 17.5952 40.4993 17.6929 40.3439C17.8023 40.1608 17.926 40.0409 18.0642 39.9842C17.7721 40.5651 17.4342 41.1187 17.0505 41.6449C16.6784 42.1434 16.3876 42.643 16.178 43.144C16.2174 43.1278 16.2524 43.0443 16.2828 42.8935C16.3132 42.7427 16.3696 42.6274 16.4521 42.5474C16.5088 42.6856 16.4761 42.8027 16.3541 42.8989C16.2438 42.9672 16.1851 43.0489 16.178 43.144C16.1035 43.2437 16.0651 43.3748 16.0625 43.5372C16.0518 43.6799 16.0053 43.7913 15.9227 43.8712C16.0214 43.8307 16.1098 43.7369 16.1877 43.5896C16.2657 43.4424 16.3082 43.3212 16.3153 43.226C16.4464 43.2645 16.5056 43.2402 16.493 43.1532C16.4803 43.0661 16.5234 43.0024 16.6221 42.9619C16.6955 42.7474 16.7828 42.5386 16.8841 42.3357C17.0051 42.1247 17.1458 41.9056 17.3063 41.6784C17.5179 41.4072 17.716 41.1876 17.9008 41.0196C18.0972 40.8238 18.1428 40.5976 18.0376 40.341C18.1165 40.3086 18.1752 40.2269 18.2137 40.0958C18.2522 39.9648 18.293 39.8673 18.336 39.8036C18.2768 39.8279 18.2535 39.8835 18.2661 39.9706C18.2904 40.0298 18.2823 40.0101 18.2419 39.9114C18.1432 39.9518 18.1176 39.9738 18.1652 39.9774C18.2046 39.9612 18.1953 40.0227 18.137 40.1618L18.0642 39.9842C18.1467 39.9043 18.2054 39.8225 18.2404 39.739C18.2672 39.6358 18.33 39.564 18.4287 39.5235C19.6374 35.8921 20.9129 32.1988 22.2553 28.4435C23.5895 24.6684 24.8228 20.9002 25.9551 17.1387C25.8499 16.8821 25.7644 16.6174 25.6987 16.3446C25.6329 16.0719 25.7284 15.8829 25.985 15.7776C26.1454 15.5505 26.3864 15.4632 26.7077 15.5159C27.021 15.5489 27.2638 15.6914 27.4364 15.9434C27.5351 15.903 27.5606 15.8809 27.5131 15.8774C27.4574 15.8541 27.4789 15.8222 27.5776 15.7818C27.6909 16.0581 27.7969 16.176 27.8956 16.1356C27.928 16.2145 27.9859 16.2715 28.0694 16.3064C28.1053 16.3378 28.1471 16.3553 28.1946 16.3588C28.3419 16.4368 28.4061 16.5372 28.3874 16.6602C28.3606 16.7634 28.2978 16.8353 28.1991 16.8758L28.2355 16.9646C28.276 17.0633 28.2742 17.0871 28.2302 17.0359C28.1978 16.957 28.1502 16.9534 28.0875 17.0253C28.0292 17.1644 28.0065 17.2775 28.0191 17.3646C28.0515 17.4435 28.0838 17.5225 28.1162 17.6015C27.9522 17.8762 27.8479 18.1841 27.8033 18.5252C27.7587 18.8663 27.7019 19.1778 27.633 19.4597C27.6654 19.5386 27.6641 19.6198 27.6292 19.7033C27.6059 19.759 27.5867 19.8245 27.5715 19.8999C27.5482 19.9556 27.5388 20.0171 27.5433 20.0844C27.5479 20.1517 27.5861 20.2167 27.6579 20.2795C27.6747 19.9268 27.7251 19.5718 27.8092 19.2145C27.8852 18.8375 27.9374 18.4587 27.9658 18.0781C28.0533 18.5726 28.0299 19.0779 27.8957 19.5941C27.7731 20.0824 27.6766 20.6062 27.6061 21.1654C27.5657 21.0667 27.571 20.9953 27.6221 20.9513C27.6732 20.9073 27.6786 20.8359 27.6381 20.7373C27.4842 21.2615 27.3877 21.7853 27.3486 22.3086C27.3095 22.8318 27.2327 23.3475 27.1183 23.8556C27.2397 24.1517 27.2642 24.4644 27.1917 24.7939C27.1309 25.0955 27.0684 25.4209 27.004 25.77C26.994 25.5206 27.0135 25.2589 27.0626 24.9851C27.1118 24.7114 27.1748 24.4434 27.2518 24.1813C27.1531 24.2217 27.0944 24.3035 27.0756 24.4264C27.0569 24.5494 27.0597 24.6405 27.0839 24.6997C27.0597 24.6405 27.0273 24.5615 26.9868 24.4629C26.9661 24.3561 26.9952 24.2865 27.0742 24.2541C26.9557 24.3027 26.9167 24.3763 26.9572 24.475C26.9977 24.5737 27.0103 24.6607 26.9951 24.7361C26.9612 24.9345 26.8953 25.1114 26.7976 25.2667C26.7116 25.3942 26.6969 25.5271 26.7535 25.6652C26.7129 26.4658 26.6624 27.2705 26.602 28.0792C26.5335 28.8681 26.5364 29.6624 26.6106 30.462C26.6294 30.3391 26.6742 30.2515 26.7451 30.1994C26.8159 30.1473 26.8706 30.0557 26.9091 29.9247C26.9253 29.9641 26.9159 30.0256 26.881 30.1091C26.8693 30.1369 26.8536 30.1549 26.8339 30.163C27.0733 29.9034 27.333 29.6932 27.6129 29.5323C27.9125 29.3634 28.1425 29.1653 28.303 28.9381C28.3308 28.9497 28.3546 28.9515 28.3744 28.9434C28.4022 28.9551 28.426 28.9568 28.4457 28.9487C28.4655 28.9406 28.4834 28.9563 28.4996 28.9958C28.4753 28.9366 28.5184 28.8728 28.6287 28.8045C28.7588 28.7281 28.8866 28.6181 29.0121 28.4744C29.4839 28.0504 30.0014 27.6537 30.5647 27.2844C31.12 26.8954 31.5899 26.4951 31.9746 26.0838C32.0733 26.0433 32.111 26.0509 32.0877 26.1066C32.0644 26.1622 32.1021 26.1698 32.2008 26.1294C33.1266 25.5192 34.0761 24.9109 35.0494 24.3043C36.0146 23.6779 37.014 23.1068 38.0475 22.5908C38.3238 22.4775 38.5288 22.3588 38.6624 22.2349C38.8158 22.1028 39.001 21.9923 39.2181 21.9032C39.5097 21.7145 39.8134 21.5554 40.1292 21.4259C40.4566 21.2686 40.7585 21.1333 41.0349 21.02C41.2915 20.9148 41.5243 20.8078 41.7333 20.699C41.9621 20.5822 42.1608 20.42 42.3293 20.2125C42.428 20.1721 42.5505 20.1334 42.6968 20.0965C42.843 20.0596 42.8713 20.1286 42.7817 20.3037C42.6005 20.4241 42.4409 20.5127 42.3027 20.5693C42.1645 20.626 42.0304 20.6925 41.9003 20.7689C41.7819 20.8175 41.6617 20.8898 41.5397 20.9859C41.4294 21.0542 41.3016 21.1643 41.1563 21.3161C41.132 21.2569 41.1315 21.1994 41.1548 21.1438C41.1664 21.1159 41.192 21.0939 41.2315 21.0777C41.1338 21.2331 41.0234 21.3014 40.9005 21.2826C40.7694 21.2441 40.6672 21.3322 40.5937 21.5467C40.5623 21.5827 40.5368 21.6047 40.517 21.6128C40.4578 21.637 40.3999 21.5801 40.3432 21.4419C40.2455 21.5973 40.1119 21.7212 39.9424 21.8138C39.7728 21.9064 39.6351 22.0205 39.5293 22.1561C39.4306 22.1966 39.3337 22.2132 39.2386 22.2061C39.1354 22.1793 39.0541 22.178 38.9949 22.2023L39.0556 22.3503C39.0161 22.3665 38.9686 22.363 38.9129 22.3397C38.8851 22.328 38.8631 22.3025 38.8469 22.263L38.9076 22.411L38.2858 22.666C38.1476 22.7226 37.9839 22.8013 37.7946 22.902C37.6251 22.9945 37.5193 23.1301 37.4772 23.3088L37.4044 23.1311C37.3254 23.1635 37.2882 23.2133 37.2928 23.2807C37.2892 23.3282 37.2376 23.3148 37.1379 23.2404L37.2108 23.418C37.2305 23.4099 37.2305 23.4099 37.2108 23.418C37.2108 23.418 37.2009 23.4221 37.1811 23.4302C37.1533 23.4185 37.1354 23.4028 37.1273 23.3831C37.1111 23.3436 37.1146 23.2961 37.1379 23.2404C37.0984 23.2566 37.0612 23.3064 37.0263 23.3899C37.0227 23.4375 37.025 23.4711 37.0331 23.4909C36.9542 23.5233 36.9165 23.5157 36.92 23.4681C36.9352 23.3927 36.9236 23.4205 36.8851 23.5516C36.7864 23.592 36.7689 23.6338 36.8327 23.6768C36.8883 23.7001 36.8466 23.6826 36.7074 23.6244C36.6087 23.6649 36.532 23.7309 36.4774 23.8225C36.4227 23.9141 36.3164 23.9923 36.1585 24.057C36.1504 24.0373 36.1284 24.0117 36.0925 23.9803C36.009 23.9454 35.9475 23.936 35.908 23.9522C35.9485 24.0509 35.9902 24.0684 36.0333 24.0046C36.0763 23.9408 36.118 23.9583 36.1585 24.057L35.9809 24.1298C35.9404 24.0312 35.9126 24.0195 35.8974 24.0949C35.8822 24.1703 35.8827 24.2278 35.8988 24.2672C35.8199 24.2996 35.7822 24.292 35.7857 24.2444C35.809 24.1888 35.761 24.1278 35.6415 24.0615C35.6147 24.1647 35.6152 24.2221 35.643 24.2338C35.6511 24.2535 35.6749 24.2553 35.7144 24.2391C35.5565 24.3039 35.456 24.3681 35.413 24.4319C35.3816 24.4678 35.287 24.5181 35.129 24.5829C35.1129 24.5434 35.1285 24.5254 35.1761 24.529C35.2156 24.5128 35.1878 24.5011 35.0926 24.494C35.1007 24.5138 35.0989 24.5376 35.0873 24.5654C35.0802 24.6605 35.0592 24.7499 35.0242 24.8334C34.8456 24.7913 34.6935 24.8421 34.568 24.9858C34.4424 25.1295 34.2985 25.2001 34.136 25.1976C34.1684 25.2765 34.1451 25.3322 34.0661 25.3645C33.8885 25.4374 33.8042 25.5411 33.8133 25.6757C33.7981 25.7511 33.8085 25.8045 33.8444 25.8359C33.7654 25.8683 33.7335 25.8468 33.7487 25.7714C33.7558 25.6762 33.7432 25.5892 33.7108 25.5102C33.5529 25.575 33.4466 25.6531 33.392 25.7447C33.3489 25.8085 33.2781 25.8606 33.1794 25.9011L33.357 25.8282C33.0807 25.9415 32.9152 26.044 32.8605 26.1356C32.8256 26.2191 32.7094 26.3013 32.512 26.3822C32.5282 26.4217 32.5502 26.4473 32.5781 26.4589C32.6023 26.5181 32.6046 26.5518 32.5849 26.5599L32.6441 26.5356C32.6836 26.5194 32.7154 26.5409 32.7397 26.6001C32.5433 26.7959 32.3092 26.9841 32.0374 27.1648C31.7854 27.3373 31.567 27.5075 31.3822 27.6755C31.3498 27.5966 31.3493 27.5391 31.3807 27.5032C31.4121 27.4673 31.4157 27.4197 31.3914 27.3605C31.3565 27.444 31.3094 27.4979 31.2502 27.5222C31.1829 27.5267 31.1775 27.5981 31.2342 27.7362C31.3131 27.7038 31.3248 27.676 31.2691 27.6527C31.2251 27.6016 31.2426 27.5599 31.3215 27.5275C31.362 27.6262 31.2737 27.72 31.0565 27.8091C30.975 28.0039 30.806 28.1539 30.5494 28.2591C30.3044 28.3365 30.1272 28.4668 30.0179 28.65C29.8995 28.6985 29.8147 28.7448 29.7636 28.7888C29.7044 28.8131 29.6456 28.8948 29.5874 29.034C29.4877 28.9596 29.428 28.9264 29.4083 28.9345C29.3885 28.9426 29.3496 29.0162 29.2913 29.1554C29.3865 29.1625 29.4282 29.18 29.4166 29.2078C29.4166 29.2078 29.4009 29.2257 29.3695 29.2617C29.3498 29.2698 29.3341 29.2877 29.3224 29.3156C29.3108 29.3434 29.3409 29.3887 29.4127 29.4515C29.2144 29.4175 29.1005 29.5334 29.0711 29.7991C28.94 29.7606 28.8238 29.8428 28.7226 30.0457C28.633 30.2208 28.5191 30.3367 28.3809 30.3933C28.4356 30.3017 28.4687 30.242 28.4804 30.2142C28.492 30.1864 28.5113 30.1208 28.5381 30.0176L28.5032 30.1011C28.4799 30.1567 28.4521 30.1451 28.4197 30.0661C28.4789 30.0419 28.5085 30.0297 28.5085 30.0297C28.5202 30.0019 28.5057 29.9386 28.4653 29.8399C28.5057 29.9386 28.4981 29.9763 28.4425 29.953C28.3868 29.9298 28.3792 29.9675 28.4197 30.0661L28.2717 30.1268C28.3506 30.0945 28.3448 30.1084 28.2542 30.1686C28.1555 30.2091 28.1223 30.2688 28.1547 30.3477L28.2489 30.2399C28.2802 30.204 28.3018 30.1721 28.3134 30.1443C28.3448 30.1084 28.3802 30.0823 28.4197 30.0661C28.3731 30.1775 28.301 30.3108 28.2033 30.4662C28.1172 30.5937 28.058 30.6179 28.0256 30.539C27.9269 30.5795 27.9193 30.6172 28.0028 30.6521C28.0109 30.6718 28.0387 30.6835 28.0863 30.687C27.9947 30.6324 27.9472 30.6288 27.9436 30.6764C27.9401 30.7239 27.8889 30.768 27.7902 30.8084L27.8631 30.9861L27.5374 31.1196C27.4235 31.2355 27.3038 31.3653 27.1783 31.509C27.0644 31.6248 26.9406 31.7448 26.807 31.8687C26.9183 31.9153 26.9973 31.8829 27.0438 31.7716C27.0904 31.6603 27.1433 31.5925 27.2025 31.5682C27.2268 31.6274 27.2233 31.675 27.1919 31.7109C27.1605 31.7468 27.161 31.8043 27.1934 31.8832C27.0623 31.8447 26.9654 31.8614 26.9026 31.9333C26.8596 31.997 26.8085 32.041 26.7492 32.0653C26.7923 32.0016 26.8178 31.9796 26.8259 31.9993C26.8538 32.0109 26.8659 32.0405 26.8624 32.0881C26.8704 32.1079 26.8588 32.1357 26.8274 32.1716C26.8077 32.1797 26.7816 32.1443 26.7492 32.0653C26.6748 32.165 26.6439 32.2584 26.6566 32.3454C26.6611 32.4127 26.614 32.4666 26.5154 32.5071C26.5254 32.7566 26.5104 33.0855 26.4704 33.4939C26.442 33.8745 26.4885 34.2128 26.6099 34.5089C26.5112 34.5493 26.5023 34.6683 26.5832 34.8657C26.6318 34.9841 26.635 35.1326 26.593 35.3113C26.5707 35.4818 26.5879 35.6362 26.6445 35.7743C26.6591 36.0911 26.6849 36.3227 26.7218 36.4689C26.7785 36.6071 26.8351 36.7453 26.8918 36.8834C26.9733 36.6886 27.0131 36.4763 27.0111 36.2466C27.0288 36.0087 27.0448 35.7946 27.059 35.6044C27.1901 35.6429 27.2544 35.7433 27.2518 35.9058C27.2492 36.0682 27.2166 36.1854 27.1538 36.2572C27.1943 36.3559 27.2064 36.3855 27.1902 36.346C27.1857 36.2787 27.2229 36.2289 27.3018 36.1965C27.3666 36.3544 27.3843 36.5662 27.3548 36.8319C27.3173 37.0779 27.2991 37.2583 27.3001 37.3731L27.3889 37.3367C27.4537 37.4946 27.4847 37.6548 27.4822 37.8173C27.4715 37.96 27.4649 38.1126 27.4624 38.275C27.4517 38.4177 27.4509 38.5564 27.46 38.691C27.4888 38.8175 27.5513 38.9418 27.6474 39.0638C27.5487 39.1042 27.4936 39.1384 27.4819 39.1662C27.4819 39.1662 27.5022 39.2156 27.5426 39.3142C27.4439 39.3547 27.347 39.3714 27.2519 39.3643C27.1684 39.3294 27.1469 39.3612 27.1873 39.4599C26.9297 39.4503 26.6577 39.3773 26.3713 39.2411C26.0849 39.1049 25.7712 39.0146 25.4301 38.97C25.1737 38.1759 25.024 37.3611 24.9812 36.5255C24.9383 35.69 24.9157 34.9038 24.9133 34.1669C24.8146 34.2074 24.7043 34.2757 24.5823 34.3718C24.48 34.4599 24.3796 34.5241 24.2809 34.5646C24.3553 34.4649 24.4279 34.389 24.4988 34.3369C24.5894 34.2767 24.7073 34.1707 24.8526 34.0189C24.7539 34.0594 24.7243 34.0715 24.7638 34.0553C24.8149 34.0113 24.8283 33.9597 24.804 33.9005C24.6649 33.8422 24.572 33.8688 24.5254 33.9801C24.4986 34.0834 24.473 34.1054 24.4488 34.0462C24.5474 34.0057 24.5945 33.9518 24.59 33.8845C24.5854 33.8172 24.6325 33.7633 24.7312 33.7228L24.7191 33.6932C24.7029 33.6537 24.7244 33.6219 24.7836 33.5976C24.405 33.7989 24.1122 34.0689 23.9052 34.4074C23.69 34.7262 23.4448 34.9997 23.1694 35.2278L23.3471 35.155L22.9918 35.3007L23.0806 35.2643C23.1398 35.24 23.1816 35.2575 23.2058 35.3167C23.1233 35.3966 23.0507 35.4725 22.9879 35.5444C22.9449 35.6081 22.9019 35.6719 22.8588 35.7356C22.7961 35.8075 22.753 35.8712 22.7298 35.9269C22.6103 35.8606 22.586 35.8014 22.6569 35.7493C22.7278 35.6971 22.743 35.6217 22.7025 35.523C22.4327 35.9334 22.1565 36.3003 21.8741 36.6236C21.5916 36.9469 21.3886 37.2953 21.2651 37.6688C21.2059 37.6931 21.1821 37.6913 21.1937 37.6634L21.2287 37.58ZM27.6381 20.7373C27.6138 20.678 27.6192 20.6067 27.6541 20.5232C27.6576 20.4756 27.6751 20.4339 27.7065 20.3979C27.7389 20.4769 27.6999 20.5505 27.5896 20.6188C27.499 20.679 27.5151 20.7185 27.6381 20.7373ZM24.3278 27.5937C24.2382 27.7688 24.2002 27.9573 24.2138 28.1592C24.2472 28.353 24.1831 28.5061 24.0217 28.6184C23.9958 28.8365 23.9399 29.0093 23.8538 29.1369C23.7875 29.2563 23.7571 29.4071 23.7626 29.5893C23.4553 30.2456 23.1961 30.9629 22.9849 31.7412C22.7656 32.4998 22.5203 33.2229 22.2489 33.9106C22.2149 34.109 22.1334 34.3038 22.0043 34.4951C21.8869 34.6585 21.8727 34.8488 21.9617 35.0659C21.9374 35.0067 21.988 34.9052 22.1136 34.7615L22.3262 34.6052C22.4249 34.5647 22.5038 34.5324 22.563 34.5081C22.6141 34.4641 22.6195 34.3927 22.579 34.294C22.6777 34.2536 22.6992 34.2217 22.6435 34.1984C22.5798 34.1554 22.5973 34.1136 22.696 34.0731C22.7283 34.1521 22.766 34.1597 22.8091 34.0959C22.8207 34.0681 22.8422 34.0362 22.8736 34.0003C22.8073 34.1197 22.7508 34.2351 22.7042 34.3464C22.6496 34.438 22.5828 34.5 22.5038 34.5324C22.52 34.5718 22.4985 34.6037 22.4393 34.628C22.372 34.6325 22.3464 34.6546 22.3626 34.694C22.5043 34.5898 22.646 34.4856 22.7877 34.3814C22.9492 34.269 23.0666 34.1056 23.1401 33.891C23.0206 33.8247 22.9632 33.8252 22.9678 33.8925C22.9642 33.9401 22.9328 33.976 22.8736 34.0003L22.8008 33.8227C22.9004 33.8971 22.9521 33.9105 22.9556 33.8629C22.9511 33.7956 22.9883 33.7458 23.0672 33.7134C23.1391 33.7762 23.1715 33.8551 23.1643 33.9503C23.1492 34.0257 23.1142 34.1092 23.0595 34.2007C22.9968 34.2726 22.9201 34.3386 22.8295 34.3988C22.7586 34.4509 22.6994 34.4752 22.6518 34.4717C22.7085 34.6098 22.7113 34.7009 22.6601 34.7449C22.609 34.789 22.5341 34.8312 22.4354 34.8717C22.395 34.773 22.3945 34.7155 22.4339 34.6994C22.4653 34.6634 22.4021 34.6778 22.2441 34.7426C22.3555 34.7892 22.3995 34.8403 22.3762 34.896C22.3727 34.9435 22.3395 35.0032 22.2767 35.0751C22.2337 35.1388 22.1808 35.2066 22.118 35.2785C22.0553 35.3503 22.0262 35.4199 22.0307 35.4872C22.0702 35.471 22.0917 35.4392 22.0952 35.3916C22.1185 35.3359 22.1795 35.2879 22.2782 35.2474C22.3025 35.3066 22.3222 35.2985 22.3374 35.2231C22.3643 35.1199 22.3939 35.1078 22.4263 35.1867C22.4505 35.2459 22.4098 35.3433 22.304 35.4789C22.1901 35.5948 22.0641 35.6811 21.9259 35.7377C21.9421 35.7772 21.917 35.8566 21.8507 35.9761C21.7844 36.0955 21.7221 36.2248 21.6639 36.3639C21.5652 36.4044 21.4688 36.4785 21.3746 36.5863C21.2805 36.6941 21.2455 36.7776 21.2698 36.8368C21.3685 36.7963 21.4905 36.7002 21.6357 36.5484C21.7927 36.3688 21.9007 36.2668 21.9599 36.2425C21.9923 36.3215 21.9533 36.3951 21.843 36.4634C21.7524 36.5236 21.6699 36.6036 21.5955 36.7032C21.9336 36.4032 22.2515 36.0538 22.5491 35.6551C22.8584 35.2285 23.1032 34.8976 23.2834 34.6623C23.1579 34.806 23.0579 34.9277 22.9835 35.0274C22.9207 35.0993 22.8498 35.1514 22.7709 35.1837C22.9708 34.9404 23.2103 34.6808 23.4892 34.405C23.7681 34.1293 24.0272 33.8616 24.2667 33.602C24.3071 33.7007 24.2896 33.7425 24.2142 33.7273C24.1586 33.704 24.151 33.7417 24.1915 33.8404C24.3089 33.6769 24.4304 33.5234 24.5559 33.3797C24.7012 33.2279 24.6921 33.0933 24.5287 32.9758C24.5018 33.0791 24.453 33.1567 24.3821 33.2088C24.3113 33.261 24.2346 33.327 24.1521 33.4069C24.0812 33.459 24.0086 33.5349 23.9342 33.6346C23.8795 33.7262 23.8172 33.8555 23.7473 34.0225L23.6745 33.8448C23.715 33.9435 23.7172 33.9772 23.6813 33.9458C23.6651 33.9063 23.6279 33.9562 23.5697 34.0953C23.4118 34.1601 23.2329 34.3141 23.0329 34.5575C22.833 34.8009 22.6702 34.9944 22.5447 35.1381C22.4855 35.1624 22.4738 35.1903 22.5097 35.2216C22.5457 35.253 22.534 35.2809 22.4748 35.3051L22.3655 35.0387C22.6571 34.85 22.9226 34.6258 23.162 34.3662C23.4212 34.0986 23.5475 33.8162 23.541 33.5192C23.4827 33.6583 23.4281 33.7499 23.3769 33.7939C23.3258 33.8379 23.2671 33.9197 23.2008 34.0391C23.1684 33.9601 23.1679 33.9027 23.1993 33.8668C23.2504 33.8227 23.2064 33.7716 23.0672 33.7134C23.2251 33.6486 23.2861 33.6006 23.2502 33.5692C23.234 33.5297 23.2555 33.4978 23.3147 33.4736C23.3345 33.4655 23.3502 33.4475 23.3618 33.4197C23.3735 33.3918 23.3375 33.3605 23.254 33.3255C23.2935 33.3093 23.355 33.3187 23.4385 33.3536C23.4663 33.3653 23.4843 33.381 23.4924 33.4007C23.5147 33.2302 23.6088 33.1224 23.7748 33.0774C23.9328 33.0126 23.9996 32.9507 23.9753 32.8915C23.9206 32.983 23.9036 33.0822 23.9244 33.189C23.9451 33.2958 23.9061 33.3694 23.8074 33.4099L23.7589 33.2915C23.7239 33.375 23.7001 33.3732 23.6875 33.2861C23.6749 33.1991 23.6389 33.1677 23.5797 33.192C23.5332 33.3033 23.5516 33.3764 23.6351 33.4114C23.7302 33.4185 23.7482 33.4342 23.689 33.4585C23.8469 33.3937 23.9276 33.3375 23.9312 33.29C23.9464 33.2146 23.9773 33.1212 24.0239 33.0099C24.0562 33.0888 24.0765 33.1382 24.0846 33.1579C24.1043 33.1498 24.1635 33.1255 24.2622 33.0851C24.1311 33.0466 24.1109 32.9972 24.2015 32.937C24.3118 32.8687 24.3549 32.805 24.3306 32.7458C24.3549 32.805 24.4065 32.8184 24.4854 32.786C24.5644 32.7537 24.5424 32.7281 24.4194 32.7094C24.3799 32.7255 24.3288 32.7696 24.266 32.8414C24.2033 32.9133 24.1225 32.9694 24.0239 33.0099C23.9996 32.9507 24.0211 32.9188 24.0884 32.9142C24.1557 32.9097 24.1772 32.8778 24.1529 32.8186C24.1448 32.7989 24.1466 32.7751 24.1583 32.7473C24.1699 32.7194 24.2273 32.7189 24.3306 32.7458L24.1529 32.8186C24.2516 32.7781 24.3503 32.7377 24.449 32.6972C24.5396 32.637 24.5687 32.5674 24.5364 32.4885C24.505 32.5244 24.4835 32.5563 24.4718 32.5841C24.4288 32.6479 24.3911 32.6403 24.3587 32.5613L24.4529 32.4535C24.5156 32.3817 24.5865 32.3296 24.6654 32.2972C24.6433 31.5684 24.6571 30.8711 24.7068 30.2051C24.7566 29.5391 24.7726 28.8754 24.7551 28.214C24.6761 28.2463 24.6308 28.2764 24.6192 28.3043C24.6272 28.324 24.6232 28.3141 24.607 28.2747C24.5827 28.2154 24.5741 28.1383 24.5813 28.0431C24.5848 27.9955 24.5982 27.9439 24.6215 27.8883C24.4934 28.1944 24.3873 28.5261 24.3033 28.8834C24.2192 29.2407 24.0835 29.5845 23.8962 29.915C23.9641 29.5182 24.058 29.1569 24.178 28.831C24.3178 28.497 24.4001 28.1635 24.4249 27.8305C24.5039 27.7982 24.5272 27.7425 24.4948 27.6635C24.4741 27.5568 24.4556 27.4836 24.4394 27.4441L24.3278 27.5937ZM32.4072 26.6327L32.4436 26.7215C32.4275 26.682 32.4351 26.6443 32.4664 26.6084C32.5176 26.5644 32.4735 26.5133 32.3344 26.4551C32.3748 26.5537 32.3574 26.5955 32.282 26.5803C32.2066 26.5651 32.1891 26.6068 32.2296 26.7055L32.4436 26.7215L32.4072 26.6327ZM31.8219 26.9765C31.8811 26.9522 31.9165 26.9261 31.9282 26.8983C31.9398 26.8705 32.0031 26.8561 32.118 26.8551C32.0937 26.7958 32.1013 26.7581 32.1408 26.742L32.2296 26.7055L31.9039 26.8391C32.0188 26.8381 32.0269 26.8578 31.9282 26.8983C31.8411 26.9109 31.8057 26.937 31.8219 26.9765ZM32.266 26.7944C32.2498 26.7549 32.2875 26.7625 32.3791 26.8172C32.4626 26.8521 32.4841 26.8202 32.4436 26.7215L32.266 26.7944ZM21.7796 34.6218C21.8783 34.5813 21.9492 34.5292 21.9922 34.4655C22.0271 34.382 22.0051 34.3564 21.9262 34.3888C21.8993 34.492 21.8742 34.5715 21.851 34.6271C21.8044 34.7385 21.7806 34.7367 21.7796 34.6218ZM20.527 38.9052C20.5852 38.7661 20.6277 38.6449 20.6546 38.5416C20.6931 38.4106 20.6961 38.3056 20.6638 38.2266C20.5974 38.346 20.5746 38.4591 20.5954 38.5659C20.608 38.653 20.5852 38.7661 20.527 38.9052ZM20.4465 39.2149C20.406 39.1162 20.4154 39.0548 20.4746 39.0305C20.5257 38.9865 20.5432 38.9447 20.527 38.9052C20.5432 38.9447 20.5257 38.9865 20.4746 39.0305C20.4154 39.0548 20.406 39.1162 20.4465 39.2149ZM17.2782 41.8629L17.3267 41.9813C16.493 43.1532 15.8908 44.2993 15.5201 45.4197C15.6178 45.2644 15.6917 45.1072 15.7419 44.9483C15.8001 44.8092 15.8862 44.6817 16 44.5658C15.9454 44.6574 15.94 44.7287 15.9841 44.7799C16.0478 44.8229 16.0402 44.8606 15.9613 44.893L15.7866 45.3105C15.7785 45.2907 15.7762 45.2571 15.7798 45.2095C15.8147 45.126 15.8519 45.0762 15.8914 45.06C15.8843 45.1551 15.8377 45.2664 15.7517 45.3939C15.6934 45.5331 15.6312 45.6624 15.5648 45.7818C15.5066 45.921 15.46 46.0323 15.4251 46.1158C15.3982 46.219 15.4086 46.2724 15.4562 46.276C15.4886 46.3549 15.4693 46.4205 15.3985 46.4726C15.3079 46.5328 15.2747 46.5925 15.299 46.6517C15.3805 46.4569 15.4719 46.258 15.5731 46.0551C15.6744 45.8522 15.7658 45.6533 15.8473 45.4585L15.8958 45.5769C15.7014 46.0025 15.4994 46.4658 15.2898 46.9667C15.0883 47.4874 14.9384 48.0216 14.8401 48.5691C14.8123 48.5575 14.8042 48.5378 14.8158 48.5099C14.7996 48.4704 14.8472 48.474 14.9585 48.5206C15.0138 48.0368 15.1763 47.5897 15.4461 47.1793C15.716 46.7689 15.9104 46.3434 16.0294 45.9026C16.3594 45.5828 16.5781 45.2165 16.6855 44.8035C16.8126 44.3825 16.9774 43.9691 17.1799 43.5632L17.0023 43.6361C17.2164 43.2024 17.3853 42.7989 17.5088 42.4254C17.6521 42.0438 17.7774 41.6466 17.8848 41.2337C17.7674 41.3971 17.6795 41.5484 17.6213 41.6876C17.555 41.807 17.4406 41.8654 17.2782 41.8629ZM18.6011 42.9805C18.68 42.9482 18.7289 42.8705 18.7476 42.7475C18.7861 42.6164 18.7851 42.5016 18.7447 42.4029C18.7715 42.2996 18.8024 42.2063 18.8373 42.1228C18.8723 42.0393 18.8735 41.9581 18.8412 41.8791C18.3444 43.5354 17.8175 45.1464 17.2605 46.7121C16.7314 48.2894 16.2138 49.8389 15.708 51.3606C16.2705 49.9771 16.7854 48.59 17.2528 47.1994C17.748 45.8205 18.1975 44.4142 18.6011 42.9805ZM15.0799 48.8167C15.1589 48.7843 15.188 48.7147 15.1673 48.6079C15.1465 48.5011 15.1658 48.4356 15.225 48.4113C15.2574 48.4903 15.2538 48.5378 15.2143 48.554C15.2027 48.5819 15.183 48.59 15.1551 48.5783C15.4958 48.1158 15.7606 47.5807 15.9495 46.9729C16.1581 46.3571 16.3475 45.8068 16.5176 45.322C16.2498 45.9621 15.9954 46.5506 15.7544 47.0875C15.5134 47.6244 15.2885 48.2008 15.0799 48.8167ZM22.0692 36.509C22.1087 36.4928 22.1325 36.4946 22.1406 36.5143C22.1487 36.5341 22.137 36.5619 22.1056 36.5978C22.0823 36.6535 22.055 36.6993 22.0236 36.7352C21.9832 36.6365 21.9907 36.5988 22.0464 36.6221C22.1021 36.6454 22.1097 36.6077 22.0692 36.509ZM27.004 25.77C27.0202 25.8095 27.0149 25.8809 26.988 25.9841C26.9612 26.0873 26.964 26.1784 26.9963 26.2574C26.964 26.1784 26.9316 26.0995 26.8992 26.0205C26.8866 25.9335 26.9215 25.85 27.004 25.77ZM24.2426 28.7354C24.2021 28.6367 24.233 28.5433 24.3352 28.4553C24.4294 28.3475 24.4603 28.2541 24.4279 28.1752C24.3813 28.2865 24.3109 28.3961 24.2168 28.5038C24.1145 28.5919 24.1231 28.669 24.2426 28.7354ZM34.1268 25.5126L34.1997 25.6902C34.0803 25.6239 33.9892 25.6267 33.9264 25.6985C33.8636 25.7704 33.812 25.757 33.7715 25.6583L33.9788 25.5733L34.1268 25.5126ZM33.5027 26.1835C33.4749 26.1719 33.443 26.1504 33.4071 26.119C33.3236 26.084 33.3312 26.0463 33.4299 26.0059C33.3312 26.0463 33.2841 26.1002 33.2886 26.1675C33.2851 26.2151 33.2137 26.2098 33.0746 26.1516C33.0584 26.1121 33.0741 26.0941 33.1217 26.0977C33.1611 26.0815 33.2047 26.0752 33.2522 26.0787C33.2917 26.0625 33.3312 26.0463 33.3707 26.0302C33.402 25.9942 33.3975 25.9269 33.357 25.8282C33.437 25.9107 33.4711 25.9659 33.4595 25.9937C33.4478 26.0216 33.4622 26.0848 33.5027 26.1835ZM23.8962 29.915C23.8541 30.0936 23.7749 30.3221 23.6584 30.6004C23.5536 30.8509 23.4407 31.0816 23.3197 31.2926C23.5384 30.9263 23.7306 30.4671 23.8962 29.915ZM32.8878 26.5394L32.7397 26.6001C32.7316 26.5804 32.7374 26.5665 32.7572 26.5584C32.7769 26.5503 32.8204 26.544 32.8878 26.5394C32.7926 26.5323 32.7607 26.5108 32.7921 26.4749C32.8235 26.439 32.819 26.3716 32.7785 26.273L32.8878 26.5394ZM29.7651 28.9611C29.7812 29.0006 29.7835 29.0343 29.7719 29.0621C29.7567 29.1375 29.7195 29.1873 29.6602 29.2116C29.5813 29.244 29.5517 29.2561 29.5714 29.248C29.5912 29.24 29.6208 29.2278 29.6602 29.2116C29.7114 29.1676 29.7526 29.1276 29.784 29.0917C29.8073 29.036 29.801 28.9925 29.7651 28.9611ZM23.8276 35.0617C23.7111 35.34 23.5135 35.6171 23.2346 35.8928C23.3798 35.741 23.4856 35.6054 23.552 35.486C23.6183 35.3666 23.7102 35.2252 23.8276 35.0617ZM21.6704 37.8138C21.6112 37.8381 21.5543 37.8961 21.4996 37.9877C21.4368 38.0595 21.366 38.1116 21.287 38.144C21.2683 38.267 21.288 38.2589 21.3462 38.1197C21.4044 37.9805 21.5125 37.8786 21.6704 37.8138ZM17.8022 40.6104C17.7961 40.8204 17.689 41.0373 17.481 41.2609C17.2846 41.4567 17.1375 41.6323 17.0398 41.7877C16.9386 41.9906 16.8449 42.1558 16.7588 42.2833C16.6925 42.4027 16.5903 42.4908 16.4521 42.5474C16.6789 42.2008 16.9039 41.878 17.1272 41.5789C17.3504 41.2799 17.5754 40.957 17.8022 40.6104ZM15.5261 46.109C15.4264 46.0346 15.4218 45.9673 15.5124 45.9071C15.6228 45.8388 15.6617 45.7651 15.6294 45.6862C15.721 45.7409 15.7116 45.8023 15.6013 45.8706C15.5107 45.9308 15.4856 46.0103 15.5261 46.109ZM48.6141 12.1365L48.5791 12.22C48.5675 12.2479 48.5222 12.278 48.4432 12.3103C48.4189 12.2511 48.4759 12.1932 48.6141 12.1365ZM47.6962 12.5129L47.8511 12.5531C47.8915 12.6518 47.8741 12.6936 47.7987 12.6784C47.743 12.6551 47.7157 12.7009 47.7167 12.8158C47.6762 12.7171 47.6618 12.6538 47.6734 12.626C47.7048 12.5901 47.7124 12.5524 47.6962 12.5129ZM46.1543 13.5601C46.0646 13.7352 45.9571 13.8946 45.8315 14.0383C45.7177 14.1542 45.6195 14.2521 45.5369 14.332C45.5952 14.1929 45.6772 14.0555 45.783 13.9199C45.9085 13.7762 46.0323 13.6563 46.1543 13.5601ZM45.8049 14.3951C45.7619 14.4589 45.6951 14.5208 45.6045 14.581C45.5139 14.6413 45.461 14.7091 45.4458 14.7845L45.3972 14.666C45.4367 14.6498 45.4936 14.5919 45.568 14.4922C45.6344 14.3728 45.7133 14.3404 45.8049 14.3951ZM46.8989 13.7736C46.9475 13.892 46.9108 13.9993 46.7888 14.0954C46.6784 14.1637 46.6058 14.2396 46.5709 14.3231C46.5466 14.2639 46.5954 14.1863 46.7174 14.0901C46.8313 13.9743 46.8918 13.8687 46.8989 13.7736ZM44.6866 14.9574C44.553 15.0814 44.4571 15.2129 44.3988 15.3521C44.3325 15.4715 44.2105 15.5676 44.0329 15.6405C44.0491 15.6799 44.0217 15.7257 43.9509 15.7778C43.8998 15.8219 43.8944 15.8932 43.9349 15.9919C44.0022 15.9874 44.0336 15.9514 44.029 15.8841C44.0245 15.8168 44.0622 15.8244 44.1422 15.9069C44.1502 15.9267 44.1148 15.9527 44.0359 15.9851C43.9569 16.0175 43.878 16.0498 43.799 16.0822L43.8582 16.0579C43.9174 16.0337 43.943 16.0117 43.9349 15.9919C43.777 16.0567 43.6631 16.1725 43.5932 16.3395C43.5431 16.4984 43.3897 16.6305 43.1331 16.7357C43.2065 16.5211 43.3141 16.3617 43.4558 16.2575C43.6092 16.1255 43.6535 15.9805 43.5888 15.8226L43.6776 15.7861C43.6938 15.8256 43.6821 15.8535 43.6427 15.8696C43.6148 15.858 43.609 15.8719 43.6252 15.9114C43.8261 15.7829 44.0051 15.6288 44.162 15.4492C44.3189 15.2696 44.4938 15.1056 44.6866 14.9574ZM44.8832 15.0151C44.9075 15.0743 44.8703 15.1242 44.7716 15.1646L44.6532 15.2132C44.6729 15.2051 44.6985 15.1831 44.7299 15.1472C44.7926 15.0753 44.8437 15.0313 44.8832 15.0151ZM45.719 14.7762C45.7595 14.8749 45.6613 14.9728 45.4245 15.0699C45.4513 14.9666 45.4845 14.9069 45.5239 14.8908C45.5751 14.8467 45.6401 14.8085 45.719 14.7762ZM43.799 16.0822C43.8 16.1971 43.7929 16.2922 43.7777 16.3676C43.7822 16.435 43.7352 16.4888 43.6365 16.5293C43.6633 16.4261 43.6924 16.3565 43.7238 16.3206C43.7749 16.2765 43.8 16.1971 43.799 16.0822ZM45.309 15.4631C45.31 15.578 45.3168 15.6789 45.3294 15.766C45.334 15.8333 45.3026 15.8692 45.2353 15.8737C45.2029 15.7948 45.2024 15.7374 45.2338 15.7014C45.2849 15.6574 45.31 15.578 45.309 15.4631ZM45.0872 15.9344C45.0953 15.9542 45.0837 15.982 45.0523 16.0179C45.0128 16.0341 45.0093 16.0817 45.0416 16.1607C44.8747 16.0908 44.8154 16.1151 44.864 16.2335C44.7527 16.1869 44.7423 16.1335 44.8329 16.0733C44.9432 16.005 45.028 15.9587 45.0872 15.9344ZM43.0443 16.7721C43.0848 16.8708 43.0794 16.9422 43.0283 16.9862C42.9888 17.0024 42.9296 17.0266 42.8507 17.059C42.8183 16.9801 42.8317 16.9284 42.8909 16.9042C42.9421 16.8601 42.9932 16.8161 43.0443 16.7721ZM40.1946 20.5345C40.2635 20.2526 40.4159 20.0057 40.6517 19.7937C40.9074 19.5736 41.0777 19.3423 41.1628 19.0999C41.4452 18.7766 41.6882 18.4695 41.8917 18.1785C42.1149 17.8795 42.3521 17.5862 42.6032 17.2988C42.5252 17.4461 42.4136 17.5956 42.2683 17.7474C42.123 17.8992 42.0294 18.0644 41.9873 18.2431L41.8985 18.2795C41.574 18.7814 41.2118 19.2758 40.8119 19.7626L40.8605 19.881C40.7152 20.0328 40.6054 20.1585 40.531 20.2582C40.4485 20.3382 40.3363 20.4302 40.1946 20.5345ZM44.3811 16.7428C44.3892 16.7625 44.3044 16.8088 44.1268 16.8816C44.0605 17.0011 44.0296 17.0944 44.0341 17.1617C44.0306 17.2093 43.9992 17.2452 43.94 17.2695L43.7919 17.3302C43.8142 17.1597 43.8805 17.0402 43.9909 16.9719C44.121 16.8955 44.251 16.8192 44.3811 16.7428ZM43.3152 17.1798C43.3233 17.1995 43.3157 17.2372 43.2924 17.2929C43.2691 17.3486 43.2117 17.3491 43.1201 17.2944C43.112 17.2747 43.1771 17.2365 43.3152 17.1798ZM42.676 17.4765C42.6294 17.5878 42.6084 17.6771 42.6129 17.7444C42.6094 17.792 42.5583 17.836 42.4596 17.8765C42.4353 17.8173 42.4388 17.7697 42.4702 17.7338C42.5213 17.6898 42.5899 17.604 42.676 17.4765ZM42.6979 17.9517C42.7141 17.9912 42.7065 18.0289 42.6751 18.0648C42.6635 18.0926 42.6657 18.1263 42.6819 18.1658C42.6425 18.182 42.6088 18.1842 42.581 18.1726C42.545 18.1412 42.4975 18.1376 42.4383 18.1619C42.4975 18.1376 42.5428 18.1075 42.5742 18.0716C42.6172 18.0079 42.6584 17.9679 42.6979 17.9517ZM43.5337 17.7127C43.4943 17.7289 43.4629 17.7649 43.4396 17.8205C43.428 17.8483 43.353 17.8906 43.2149 17.9472C43.1906 17.888 43.2969 17.8099 43.5337 17.7127ZM42.2864 18.4663C42.1143 18.7213 41.9027 18.9925 41.6516 19.2799C41.4005 19.5673 41.2109 19.8641 41.0828 20.1703C40.889 20.2036 40.7554 20.3276 40.682 20.5422C40.6202 20.7289 40.54 20.8425 40.4413 20.8829C40.5775 20.5965 40.7612 20.3137 40.9925 20.0344C41.2239 19.7551 41.4575 19.5094 41.6933 19.2974C41.6529 19.1987 41.6582 19.1274 41.7093 19.0833C41.7802 19.0312 41.8349 18.9396 41.8734 18.8086C41.9882 18.8076 42.055 18.7456 42.0738 18.6226C42.0925 18.4997 42.1634 18.4475 42.2864 18.4663ZM42.88 18.3958C42.8623 18.6337 42.7453 18.8545 42.5292 19.0585C42.591 18.8717 42.6393 18.7366 42.6742 18.6531C42.7289 18.5615 42.7975 18.4758 42.88 18.3958ZM41.4657 19.0795C41.5411 19.0947 41.5299 19.18 41.4322 19.3353C41.3461 19.4628 41.2457 19.5271 41.1308 19.5281C41.189 19.3889 41.2437 19.2973 41.2948 19.2533C41.3459 19.2093 41.4029 19.1513 41.4657 19.0795ZM41.8754 19.7415C41.9311 19.7648 41.9334 19.7985 41.8823 19.8425C41.8311 19.8865 41.8177 19.9381 41.842 19.9973C41.8177 19.9381 41.8213 19.8906 41.8527 19.8546C41.884 19.8187 41.8916 19.781 41.8754 19.7415ZM41.0145 20.5096L41.0873 20.6872C40.9886 20.7277 40.9671 20.7596 41.0228 20.7829C41.0784 20.8062 41.0569 20.838 40.9582 20.8785C40.9339 20.8193 40.9474 20.7677 40.9985 20.7236C41.0496 20.6796 41.0549 20.6083 41.0145 20.5096ZM41.2407 20.5552C41.395 20.538 41.4269 20.5595 41.3363 20.6197C41.2376 20.6602 41.2004 20.71 41.2247 20.7692C41.0794 20.921 40.9736 21.0566 40.9073 21.1761C40.841 21.2955 40.7491 21.4369 40.6317 21.6003C40.6575 21.3822 40.7529 21.1932 40.918 21.0333C41.0749 20.8537 41.1824 20.6943 41.2407 20.5552ZM40.2287 21.0393C40.2682 21.0231 40.2884 21.0724 40.2894 21.1873C40.2858 21.2349 40.2724 21.2865 40.2491 21.3422C40.2061 21.4059 40.1868 21.4715 40.1914 21.5388C40.1878 21.5863 40.1866 21.6676 40.1875 21.7824C40.1471 21.6838 40.1129 21.6286 40.0851 21.6169C40.077 21.5972 40.0254 21.5838 39.9302 21.5767C39.8872 21.6404 39.8918 21.7077 39.9439 21.7786C39.9879 21.8297 39.9803 21.8674 39.9211 21.8917C39.9398 21.7687 39.9295 21.7153 39.89 21.7315C39.8424 21.728 39.7989 21.7343 39.7594 21.7505C39.8176 21.6113 39.9019 21.5076 40.0123 21.4393C40.1145 21.3513 40.1866 21.2179 40.2287 21.0393ZM34.7169 24.1293C34.7179 24.2442 34.7032 24.377 34.6728 24.5278C34.6343 24.6589 34.5657 24.7447 34.467 24.7851C34.4858 24.6622 34.5086 24.5491 34.5354 24.4458C34.5623 24.3426 34.6228 24.2371 34.7169 24.1293ZM39.1832 21.7792C39.2819 21.7387 39.3434 21.7481 39.3677 21.8073C39.1024 22.285 38.7797 22.7632 38.3995 23.2419C38.031 23.6927 37.706 24.1372 37.4246 24.5754C37.6899 24.0978 37.9789 23.6219 38.2918 23.1477C38.6046 22.6736 38.9018 22.2174 39.1832 21.7792ZM40.4836 21.661C40.4856 21.8908 40.3588 22.1157 40.1032 22.3358C40.0895 22.1339 40.124 21.993 40.2065 21.913C40.3087 21.825 40.4011 21.741 40.4836 21.661ZM39.7798 22.0534C39.8041 22.1126 39.7889 22.188 39.7343 22.2796C39.6912 22.3433 39.6338 22.3438 39.5619 22.2811C39.6014 22.2649 39.6229 22.233 39.6265 22.1854C39.63 22.1379 39.6812 22.0938 39.7798 22.0534ZM39.3038 22.6636C39.3873 22.6985 39.39 22.7896 39.3121 22.9369C39.226 23.0644 39.1632 23.1363 39.1238 23.1524C39.0914 23.0735 39.081 23.0201 39.0927 22.9923C39.124 22.9563 39.1316 22.9186 39.1155 22.8792C39.1549 22.863 39.2043 22.8427 39.2635 22.8185C39.3146 22.7744 39.328 22.7228 39.3038 22.6636ZM38.7714 23.6428C38.7643 23.7379 38.763 23.8191 38.7676 23.8864C38.764 23.934 38.7425 23.9659 38.703 23.9821C38.7182 23.9067 38.7236 23.8353 38.719 23.768C38.7145 23.7007 38.732 23.6589 38.7714 23.6428ZM39.1874 23.6451C39.1327 23.7367 39.0839 23.8144 39.0409 23.8781C38.9897 23.9222 38.9148 23.9644 38.8161 24.0049C38.8394 23.9492 38.8744 23.8657 38.921 23.7544C38.9873 23.635 39.0761 23.5985 39.1874 23.6451ZM38.6545 23.8636C38.5998 23.9552 38.5568 24.019 38.5254 24.0549C38.494 24.0908 38.5282 24.146 38.6278 24.2204L38.2726 24.3661C38.2877 24.2907 38.325 24.2409 38.3842 24.2166C38.4353 24.1726 38.4528 24.1308 38.4366 24.0913C38.4958 24.067 38.5191 24.0114 38.5064 23.9243C38.4938 23.8373 38.5432 23.8171 38.6545 23.8636ZM37.3358 24.6119C37.3995 24.6549 37.3924 24.75 37.3144 24.8973C37.2365 25.0445 37.1778 25.1263 37.1383 25.1424C37.114 25.0832 37.1292 25.0078 37.1839 24.9162C37.2502 24.7968 37.3008 24.6954 37.3358 24.6119ZM38.2877 24.7403C38.2679 24.7484 38.2522 24.7664 38.2406 24.7942C38.2173 24.8499 38.2573 24.8911 38.3605 24.918L38.094 25.0272C38.0536 24.9286 38.0531 24.8711 38.0925 24.8549C38.1437 24.8109 38.2087 24.7727 38.2877 24.7403ZM37.8533 25.368C37.8857 25.447 37.8983 25.534 37.8912 25.6292C37.876 25.7046 37.8366 25.7208 37.7728 25.6777C37.8123 25.6616 37.8257 25.6099 37.8131 25.5229C37.8004 25.4358 37.8138 25.3842 37.8533 25.368ZM37.4092 25.5501C37.5205 25.5967 37.5291 25.6739 37.435 25.7817C37.3525 25.8616 37.3234 25.9312 37.3476 25.9904C37.3234 25.9312 37.3229 25.8738 37.3461 25.8181C37.3811 25.7346 37.4021 25.6453 37.4092 25.5501ZM33.7423 27.5725C33.7585 27.6119 33.7688 27.6653 33.7734 27.7326C33.7977 27.7919 33.7605 27.8417 33.6618 27.8822C33.6294 27.8032 33.6347 27.7319 33.6778 27.6681C33.6894 27.6403 33.7109 27.6084 33.7423 27.5725ZM36.8443 26.1968C36.9394 26.2039 36.9615 26.2295 36.9103 26.2735C36.8709 26.2897 36.8215 26.3099 36.7623 26.3342C36.738 26.275 36.7456 26.2373 36.7851 26.2211L36.8443 26.1968ZM35.9348 26.8464C35.9752 26.9451 35.9327 27.0663 35.8072 27.21C35.6933 27.3259 35.6646 27.4529 35.7213 27.5911C35.6585 27.6629 35.6016 27.7208 35.5505 27.7649C35.5191 27.8008 35.49 27.8704 35.4631 27.9736C35.4495 27.7717 35.5014 27.589 35.6189 27.4256C35.7363 27.2621 35.8416 27.0691 35.9348 26.8464ZM37.0628 26.7297C37.0764 26.9317 37.0164 27.0946 36.8828 27.2186C36.7492 27.3425 36.7071 27.5212 36.7567 27.7545C36.657 27.6801 36.5978 27.7043 36.5791 27.8273C36.5522 27.9306 36.5469 28.0019 36.5631 28.0414C36.4482 28.0424 36.3657 28.1223 36.3156 28.2812C36.2771 28.4123 36.2085 28.498 36.1098 28.5385C36.0308 28.5709 35.985 28.5435 35.9724 28.4565C35.9795 28.3614 35.9557 28.3596 35.901 28.4512C35.8768 28.392 35.8861 28.3305 35.9292 28.2667C35.9722 28.203 36.0233 28.1589 36.0825 28.1347C36.0987 28.1741 36.0911 28.2118 36.0597 28.2478C36.0284 28.2837 36.0248 28.3313 36.0491 28.3905C36.2015 28.1435 36.3498 27.8867 36.4941 27.6201C36.65 27.3256 36.8001 27.045 36.9444 26.7783L37.0628 26.7297ZM36.5018 27.1327L36.5503 27.2511C36.5989 27.3696 36.572 27.4728 36.4698 27.5608C36.3792 27.6211 36.2926 27.6911 36.2101 27.7711C36.1312 27.8034 36.1074 27.8017 36.1388 27.7657C36.1818 27.702 36.2231 27.662 36.2625 27.6458C36.381 27.5973 36.4607 27.4262 36.5018 27.1327ZM35.3743 28.01C35.3905 28.0495 35.3654 28.129 35.2991 28.2484C35.2247 28.3481 35.1677 28.406 35.1283 28.4222C35.0878 28.3235 35.103 28.2481 35.1739 28.196C35.2447 28.1439 35.3115 28.0819 35.3743 28.01ZM36.3535 28.5424L35.9982 28.688C36.0412 28.6243 36.0883 28.5704 36.1394 28.5264C36.2416 28.4383 36.313 28.4437 36.3535 28.5424ZM34.4358 29.4324C34.4924 29.5706 34.4934 29.6855 34.4387 29.7771C34.4038 29.8606 34.3491 29.9521 34.2747 30.0518C34.1948 29.9693 34.1978 29.8643 34.2839 29.7368C34.3699 29.6093 34.4206 29.5078 34.4358 29.4324ZM35.5289 29.3992C35.5021 29.5025 35.521 29.633 35.5857 29.7909C35.5068 29.8233 35.479 29.8117 35.5023 29.756C35.5139 29.7282 35.5215 29.6905 35.525 29.6429C35.4785 29.7542 35.4296 29.8319 35.3785 29.8759C35.3274 29.9199 35.2902 29.9698 35.2669 30.0255L35.1781 30.0619C35.2606 29.9819 35.3013 29.8845 35.3003 29.7696C35.2993 29.6548 35.3755 29.5313 35.5289 29.3992ZM35.8203 30.1098C35.8769 30.248 35.8263 30.3494 35.6684 30.4142C35.6441 30.355 35.6494 30.2836 35.6844 30.2001C35.7193 30.1166 35.7646 30.0865 35.8203 30.1098ZM34.2097 24.5794C34.2887 24.547 34.313 24.6062 34.2826 24.757C34.2638 24.88 34.2464 24.9217 34.2302 24.8823C34.171 24.9065 34.1674 24.9541 34.2195 25.025C34.2716 25.0958 34.2681 25.1434 34.2089 25.1677L34.1117 24.9308C34.0525 24.9551 34.0391 25.0067 34.0715 25.0857L34.12 25.2041L34.2089 25.1677C34.1193 25.3428 34.0552 25.4958 34.0167 25.6269C33.9899 25.7301 33.9671 25.8432 33.9483 25.9662C33.9296 26.0892 33.9108 26.2122 33.8921 26.3351C33.8652 26.4384 33.8169 26.5735 33.747 26.7405C33.7227 26.6813 33.7263 26.6337 33.7577 26.5978C33.8088 26.5537 33.8141 26.4824 33.7737 26.3837C33.6608 26.6144 33.5914 26.8389 33.5655 27.057C33.5513 27.2473 33.4721 27.4757 33.3278 27.7424L33.3642 27.8312C33.1996 28.4982 33.035 29.1652 32.8704 29.8322C32.7058 30.4991 32.5708 31.154 32.4654 31.7967C32.4735 31.8164 32.4717 31.8402 32.4601 31.868C32.4368 31.9237 32.4054 31.9596 32.3659 31.9758C32.4216 31.9991 32.4396 32.0148 32.4198 32.0229C32.4001 32.031 32.3606 32.0472 32.3014 32.0714C32.2619 32.0876 32.2224 32.1038 32.1829 32.12C32.1435 32.1362 32.1278 32.1541 32.1359 32.1739C32.2695 32.0499 32.3358 31.9305 32.3348 31.8156C32.3455 31.6729 32.3921 31.5616 32.4746 31.4816C32.4179 31.3435 32.403 31.2228 32.4299 31.1195C32.4486 30.9966 32.5235 30.9543 32.6546 30.9928C32.6708 31.0323 32.6493 31.0642 32.59 31.0884C32.5227 31.093 32.4972 31.115 32.5134 31.1545C32.6525 31.2127 32.7628 31.1444 32.8444 30.9496C32.9178 30.735 32.954 30.5703 32.953 30.4554C33.2147 30.0253 33.4724 29.5853 33.7261 29.1355C33.9994 28.6775 34.2432 28.2317 34.4573 27.7981C34.7145 27.3006 34.9995 26.8149 35.3124 26.3407C35.6171 25.8469 35.9022 25.3611 36.1674 24.8834C36.4696 24.552 36.7086 24.235 36.8842 23.9324C37.0715 23.6019 37.2965 23.2791 37.5593 22.9639L37.6413 22.8265C37.8645 22.5274 38.0837 22.2185 38.2988 21.8997C38.5059 21.5612 38.7408 21.2343 39.0035 20.9191C39.1255 20.823 39.2115 20.6955 39.2617 20.5366C39.3118 20.3777 39.3776 20.2008 39.4591 20.006C39.6009 19.9018 39.7385 19.7877 39.8722 19.6637C40.0058 19.5397 40.1035 19.3844 40.1653 19.1977C40.635 18.5439 41.1443 17.874 41.693 17.1878C42.2417 16.5017 42.7927 15.8492 43.346 15.2304C43.5818 15.0184 43.8096 14.7867 44.0293 14.5352C44.2606 14.2559 44.5059 13.9824 44.7651 13.7147C44.9686 13.4238 45.1999 13.1445 45.459 12.8768C45.7379 12.6011 46.029 12.3549 46.3322 12.1384C46.4111 12.106 46.4309 12.0979 46.3914 12.1141C46.3438 12.1105 46.3119 12.089 46.2957 12.0495C46.7791 11.5977 47.2782 11.1279 47.793 10.6402C48.3078 10.1524 48.8365 9.67047 49.3791 9.19436L49.5271 9.13366C49.85 8.90903 50.1765 8.63683 50.5065 8.31705C50.8284 7.97754 51.1747 7.69724 51.5452 7.47616C52.0098 7.1473 52.4506 6.81666 52.8677 6.48426C53.2767 6.13211 53.7593 5.81894 54.3155 5.54476C55.3309 4.75953 56.4912 4.01861 57.7965 3.322C59.1018 2.62539 60.4278 2.03556 61.7746 1.55253C61.807 1.63148 61.7976 1.69297 61.7465 1.73698C61.6873 1.76126 61.6379 1.7815 61.5984 1.79768C61.4603 1.85434 61.3952 1.89253 61.4033 1.91227C60.7519 2.17935 60.1441 2.44012 59.5798 2.69456C59.0352 2.94091 58.505 3.25053 57.9893 3.6234C57.8511 3.68006 57.717 3.74658 57.5869 3.82297C57.4487 3.87962 57.3308 3.98562 57.2331 4.14097L57.3219 4.10455C57.1452 4.29227 56.9466 4.45443 56.7259 4.59102C56.5169 4.69979 56.3281 4.8579 56.1595 5.06536C56.0877 5.00259 56.0087 5.03496 55.9226 5.16248C55.8482 5.26216 55.7617 5.33224 55.663 5.3727C55.6711 5.39244 55.685 5.39826 55.7047 5.39017C55.7604 5.41346 55.7923 5.43498 55.8004 5.45471C55.7366 5.41169 55.6949 5.39422 55.6751 5.40231C55.6554 5.4104 55.6083 5.46429 55.5339 5.56397L55.5096 5.50476C55.4934 5.46528 55.4557 5.45768 55.3965 5.48196C55.4046 5.5017 55.4028 5.52549 55.3912 5.55332C55.3679 5.60898 55.3365 5.64491 55.297 5.66109C55.3168 5.653 55.3406 5.65478 55.3684 5.66642C55.4519 5.70136 55.4977 5.72869 55.5058 5.74843C55.2654 5.89312 55.0209 6.02794 54.7724 6.1529C54.5158 6.25811 54.3055 6.4481 54.1415 6.72287C54.0033 6.77952 53.8889 6.83795 53.7983 6.89815C53.7194 6.93053 53.6485 6.98264 53.5857 7.05449L53.3785 7.13947C53.3795 7.25435 53.2992 7.36795 53.1378 7.48026C52.9763 7.59258 52.8606 7.73224 52.7908 7.89923L52.7544 7.8104C52.6951 7.83468 52.6597 7.86074 52.6481 7.88857C52.6364 7.9164 52.583 7.92677 52.4879 7.91966C52.4529 8.00316 52.4453 8.04086 52.4651 8.03277L52.5243 8.00849C52.4453 8.04086 52.414 8.07678 52.4302 8.11626C52.4185 8.14409 52.4226 8.15396 52.4423 8.14587C52.4261 8.10639 52.4319 8.09248 52.4598 8.10412C52.4992 8.08794 52.4813 8.07224 52.4059 8.05705C52.3036 8.14508 52.2274 8.26855 52.1773 8.42745C52.1388 8.55851 52.0487 8.67616 51.907 8.78038C51.7491 8.84513 51.6015 8.96327 51.4644 9.1348C51.3191 9.2866 51.1379 9.40701 50.9208 9.49603C50.8231 9.65138 50.6737 9.7933 50.4728 9.92181C50.2916 10.0422 50.1463 10.194 50.037 10.3772C50.0648 10.3888 50.0886 10.3906 50.1083 10.3825C50.164 10.4058 50.1959 10.4273 50.204 10.4471C50.1448 10.4713 50.0972 10.4678 50.0613 10.4364C50.0253 10.405 49.9679 10.4055 49.8889 10.4379C49.7356 10.5699 49.61 10.7136 49.5123 10.869C49.4344 11.0162 49.3245 11.142 49.1828 11.2462C49.1666 11.2067 49.1446 11.1812 49.1168 11.1695C49.1087 11.1498 49.0588 11.1126 48.9673 11.0579C48.9602 11.153 48.9705 11.2064 48.9984 11.2181C49.0262 11.2297 49.0482 11.2553 49.0644 11.2948C49.0249 11.311 49.0074 11.3527 49.012 11.42C49.0165 11.4873 48.9672 11.5076 48.8639 11.4807C48.8083 11.4574 48.7944 11.4516 48.8222 11.4632C48.8419 11.4552 48.8437 11.4314 48.8275 11.3919C48.788 11.4081 48.7665 11.44 48.763 11.4875C48.7594 11.5351 48.7402 11.6006 48.7052 11.6841C48.6263 11.7165 48.5613 11.7547 48.5101 11.7987C48.4707 11.8149 48.4474 11.8706 48.4403 11.9657C48.3613 11.9981 48.3335 11.9864 48.3568 11.9308C48.3487 11.911 48.3563 11.8733 48.3796 11.8177C48.2217 11.8824 48.1176 11.9942 48.0675 12.1531C48.0371 12.3039 47.9528 12.4077 47.8147 12.4643C47.8298 12.3889 47.8294 12.3315 47.8132 12.292C47.7889 12.2328 47.8296 12.1354 47.9354 11.9998C47.8125 11.981 47.7376 12.0233 47.7107 12.1265C47.6955 12.2019 47.6421 12.2123 47.5505 12.1576C47.6396 12.3747 47.6074 12.5493 47.454 12.6814C47.2926 12.7937 47.1531 12.9315 47.0357 13.095C47.0169 13.218 46.9663 13.3194 46.8838 13.3994C46.7932 13.4596 46.7565 13.5668 46.7737 13.7212C46.6112 13.7186 46.5224 13.7551 46.5072 13.8305C46.5117 13.8978 46.4844 13.9436 46.4252 13.9678C46.4682 13.9041 46.4973 13.8345 46.5125 13.7591C46.5475 13.6756 46.5981 13.5742 46.6644 13.4547C46.5262 13.5114 46.3984 13.6214 46.281 13.7849C46.1635 13.9483 46.0636 14.07 45.9811 14.1499C45.9801 14.0351 46.0051 13.9556 46.0563 13.9116C46.0993 13.8478 46.1441 13.7603 46.1907 13.649L46.1543 13.5601C46.1775 13.5045 46.2345 13.4466 46.3251 13.3863C46.4157 13.3261 46.5098 13.2184 46.6075 13.063C46.7062 13.0226 46.7963 12.9049 46.8779 12.7101C46.9057 12.7217 46.9393 12.7195 46.9788 12.7033C47.038 12.679 47.0515 12.6274 47.0191 12.5484C46.7589 12.7012 46.537 12.919 46.3532 13.2019C46.1695 13.4847 45.9179 13.7147 45.5985 13.8918C45.5322 14.0112 45.452 14.1248 45.3578 14.2326C45.2556 14.3206 45.1551 14.3849 45.0564 14.4253C45.2169 14.1981 45.4052 13.9826 45.6213 13.7787C45.8375 13.5748 46.0356 13.3552 46.2158 13.1199C46.2553 13.1037 46.2571 13.0799 46.2212 13.0485C46.205 13.009 46.2166 12.9812 46.2561 12.965C46.3548 12.9246 46.41 12.8904 46.4216 12.8626C46.4252 12.815 46.4467 12.7831 46.4861 12.7669C46.6071 12.5559 46.778 12.3821 46.9986 12.2455C47.231 12.0811 47.4233 11.8754 47.5757 11.6285C47.5595 11.589 47.5241 11.6151 47.4694 11.7067C47.4264 11.7704 47.3806 11.7431 47.332 11.6246C47.4307 11.5842 47.5114 11.528 47.5742 11.4562C47.6567 11.3762 47.7473 11.316 47.846 11.2756C47.8506 11.3429 47.8273 11.3985 47.7761 11.4425C47.725 11.4866 47.6582 11.5485 47.5757 11.6285C47.7336 11.5637 47.8498 11.4815 47.9242 11.3818C48.0102 11.2543 48.1026 11.1703 48.2013 11.1299C48.1295 11.0671 48.072 11.0676 48.029 11.1314C47.986 11.1951 47.925 11.2432 47.846 11.2756C48.0146 11.0681 48.2208 10.8682 48.4648 10.676C48.7285 10.4756 48.9778 10.212 49.2127 9.88512C48.9561 9.99034 48.7574 10.1525 48.6167 10.3716C48.4679 10.571 48.2553 10.7273 47.9789 10.8406C47.8812 10.996 47.7696 11.1455 47.6441 11.2892C47.5105 11.4131 47.4064 11.525 47.332 11.6246C47.2136 11.6732 47.0858 11.7832 46.9486 11.9548C46.8033 12.1066 46.6302 12.2467 46.4293 12.3752C46.406 12.4309 46.3392 12.4929 46.2288 12.5612C46.1382 12.6214 46.0853 12.6892 46.0702 12.7646C45.7482 13.1041 45.3949 13.4795 45.0102 13.8909C44.6255 14.3023 44.2686 14.7253 43.9396 15.1599L43.9639 15.2191C43.972 15.2389 43.9464 15.2609 43.8872 15.2852C43.5759 15.482 43.3226 15.7357 43.1272 16.0464C42.9515 16.349 42.7161 16.6184 42.4211 16.8547C42.1082 17.3289 41.7734 17.7774 41.4165 18.2004C41.0794 18.6154 40.7405 19.0541 40.3998 19.5165C40.3603 19.5327 40.3388 19.5646 40.3352 19.6122C40.3236 19.64 40.2783 19.6701 40.1993 19.7025L40.1105 19.7389C39.8614 20.2561 39.5428 20.7441 39.1545 21.203C38.786 21.6539 38.479 22.1141 38.2334 22.5837L38.1446 22.6201C37.8874 23.1175 37.6042 23.5795 37.2949 24.0061C36.9775 24.4129 36.7019 24.8372 36.468 25.279L36.3495 25.3275C36.1901 25.6696 36.0149 26.0296 35.824 26.4076C35.6331 26.7856 35.4145 27.152 35.1679 27.5067C35.089 27.5391 35.0356 27.5494 35.0077 27.5378C34.9718 27.5064 34.9243 27.5029 34.865 27.5271C34.8812 27.5666 34.9131 27.5881 34.9607 27.5917C35.0082 27.5952 35.0482 27.6365 35.0806 27.7154C34.6538 28.3054 34.2909 28.9385 33.9916 29.6145C33.7041 30.2627 33.3747 30.8935 33.0037 31.5068C32.9768 31.61 32.9692 31.6477 32.9809 31.6199C33.0042 31.5642 33.032 31.5759 33.0644 31.6548C32.9854 31.6872 32.9621 31.7429 32.9945 31.8218C33.1676 31.6817 33.2797 31.5896 33.3308 31.5456C33.3936 31.4737 33.4756 31.3363 33.5769 31.1334C33.5607 31.0939 33.5288 31.0724 33.4812 31.0689C33.4534 31.0572 33.461 31.0195 33.504 30.9558C33.5435 30.9396 33.5615 30.9553 33.5579 31.0029C33.566 31.0226 33.5898 31.0244 33.6293 31.0082C33.7315 30.9201 33.8095 30.7729 33.8632 30.5664C33.9169 30.36 34.0244 30.2006 34.1859 30.0882C34.1519 30.2866 34.0762 30.4675 33.9588 30.631C33.8611 30.7863 33.8127 30.9214 33.8137 31.0363C33.8532 31.0201 33.8788 30.9981 33.8904 30.9703C33.894 30.9227 33.9254 30.8868 33.9846 30.8625L34.021 30.9513C34.1967 30.6487 34.2812 30.3489 34.2747 30.0518C34.3886 29.936 34.4908 29.8479 34.5814 29.7877C34.6918 29.7194 34.7685 29.6534 34.8115 29.5896C34.8571 29.3634 34.9525 29.1744 35.0978 29.0226C35.235 28.8511 35.2869 28.6684 35.2535 28.4746C35.4312 28.4017 35.5451 28.2859 35.5952 28.127C35.6372 27.9483 35.7309 27.7831 35.8762 27.6313C35.9642 27.7336 35.9571 27.8287 35.8548 27.9167C35.7526 28.0048 35.7101 28.126 35.7272 28.2803C35.6447 28.3603 35.5488 28.4918 35.4395 28.675C35.322 28.8385 35.2243 28.9938 35.1463 29.1411C35.0451 29.344 34.9299 29.5411 34.8008 29.7323C34.6834 29.8958 34.5996 30.0569 34.5495 30.2158L34.6747 30.2683C34.699 30.3275 34.6995 30.3849 34.6762 30.4406L34.6587 30.4823C34.8257 30.5522 34.8485 30.4391 34.7271 30.143C34.9119 29.975 35.0334 29.8215 35.0916 29.6823C35.1615 29.5153 35.2291 29.3147 35.2944 29.0804C35.3339 29.0642 35.3321 29.088 35.2891 29.1517C35.246 29.2155 35.264 29.2312 35.3429 29.1988C35.3824 29.1826 35.3999 29.1409 35.3954 29.0735C35.4025 28.9784 35.4554 28.9106 35.554 28.8701C35.6168 28.7983 35.6459 28.7287 35.6414 28.6614C35.6566 28.586 35.7135 28.5281 35.8122 28.4876C35.7459 28.607 35.7092 28.7143 35.7021 28.8094C35.6869 28.8848 35.6102 28.9509 35.472 29.0075C35.4963 29.0667 35.5107 29.13 35.5153 29.1973C35.5395 29.2565 35.5319 29.2942 35.4925 29.3104L35.4318 29.1624C35.3726 29.1867 35.3255 29.2405 35.2905 29.324C35.2753 29.3994 35.2642 29.4847 35.2571 29.5798C35.2419 29.6553 35.2227 29.7208 35.1994 29.7764C35.1761 29.8321 35.1366 29.8483 35.0809 29.825C35.0971 29.8645 35.0976 29.9219 35.0824 29.9973C35.0591 30.053 35.0358 30.1087 35.0125 30.1643C34.9893 30.22 34.9857 30.2676 35.0019 30.307C35.01 30.3268 35.0436 30.3245 35.1029 30.3002C35.0598 30.364 35.0284 30.3999 35.0087 30.408C34.9809 30.3963 34.9356 30.4264 34.8728 30.4983L34.932 30.474C34.9518 30.4659 34.9558 30.4758 34.9442 30.5036C34.9523 30.5234 34.9406 30.5512 34.9092 30.5871C34.8474 30.7739 34.7619 30.9588 34.6525 31.142C34.5629 31.3171 34.4675 31.5061 34.3662 31.709C34.2569 31.8922 34.1655 32.091 34.0921 32.3056C34.0106 32.5004 33.9708 32.7127 33.9728 32.9425L33.9136 32.9667C33.954 33.0654 33.9684 33.1287 33.9568 33.1565C33.9649 33.1763 33.9613 33.2238 33.9461 33.2992C33.9856 33.2831 33.9973 33.2552 33.9811 33.2157C33.9846 33.1682 34.0061 33.1363 34.0456 33.1201C34.0709 33.2942 34.019 33.4769 33.8899 33.6682C33.7805 33.8513 33.677 34.0206 33.5793 34.1759C33.5398 34.1921 33.5224 34.2339 33.5269 34.3012C33.5234 34.3488 33.492 34.3847 33.4328 34.409C33.372 34.7106 33.2874 35.0104 33.179 35.3085C33.0904 35.5984 32.9641 35.8808 32.8001 36.1556C32.8496 36.3889 32.8 36.6052 32.6512 36.8046C32.514 36.9761 32.3728 37.1378 32.2275 37.2896C32.1333 37.3973 32.063 37.5069 32.0164 37.6182C31.9895 37.7215 31.9766 37.8305 31.9776 37.9454C31.9371 37.8467 31.903 37.7915 31.8752 37.7799C31.8752 37.7799 31.8218 37.7902 31.715 37.811L31.6558 37.8353C31.636 37.8433 31.6262 37.8474 31.6262 37.8474C31.5948 37.8833 31.5791 37.9013 31.5791 37.9013L31.5495 37.9134C30.9265 37.7999 30.3595 37.5136 29.8485 37.0545C29.8242 36.9953 29.7824 36.9778 29.7232 37.0021L29.664 37.0264C29.7025 36.8953 29.6795 36.7549 29.595 36.6051C29.5024 36.4355 29.5171 36.3027 29.6391 36.2066C29.7181 36.1742 29.7755 36.1737 29.8114 36.2051C29.859 36.2086 29.9223 36.1942 30.0012 36.1618C30.02 36.0389 30.0445 35.902 30.0749 35.7512C30.1251 35.5923 30.1178 35.4339 30.053 35.276C30.3536 32.9162 30.7673 30.5792 31.294 28.265C31.8127 25.9311 32.3111 23.5479 32.7894 21.1153C32.8993 20.5399 33.0128 19.9169 33.1298 19.2464C33.2387 18.5561 33.3221 17.8879 33.3799 17.2416C33.3699 16.9921 33.3302 16.7548 33.2609 16.5296C33.1916 16.3043 33.1403 16.0948 33.1069 15.901C33.1661 15.8767 33.1975 15.8408 33.2011 15.7932C33.1965 15.7259 33.2257 15.6563 33.2884 15.5845C33.4033 15.5835 33.5344 15.622 33.6816 15.6999C33.8289 15.7779 33.9349 15.8958 33.9996 16.0537C34.0355 16.0851 34.0975 16.1519 34.1856 16.2542C34.2736 16.3564 34.3657 16.4685 34.4618 16.5905C34.5579 16.7125 34.65 16.8246 34.7381 16.9269C34.8458 17.021 34.9235 17.0699 34.9711 17.0734C34.9873 17.1129 34.9797 17.1506 34.9483 17.1865C34.9169 17.2224 34.9133 17.27 34.9376 17.3292C35.1082 17.3515 35.2177 17.4219 35.2663 17.5403C35.3346 17.6507 35.3495 17.7714 35.311 17.9024C35.3272 17.9419 35.3591 17.9634 35.4066 17.967C35.4739 17.9624 35.5157 17.9799 35.5319 18.0194C35.7125 18.2912 35.7818 18.5164 35.7397 18.695C35.7094 18.8458 35.6974 19.0698 35.7039 19.3668C35.6062 19.5222 35.5561 19.6811 35.5535 19.8435C35.551 20.006 35.4776 20.2205 35.3333 20.4872L35.394 20.6353C35.4506 20.7734 35.4099 20.8708 35.2717 20.9275C35.2423 21.1932 35.1909 21.4333 35.1175 21.6479C35.0557 21.8346 35.0415 22.0249 35.0748 22.2187C34.96 22.2197 34.899 22.2678 34.8919 22.3629C34.8767 22.4383 34.8637 22.5474 34.8531 22.6901C34.8424 22.8328 34.8161 22.9934 34.774 23.1721C34.7517 23.3426 34.676 23.5235 34.547 23.7148C34.5677 23.8216 34.5507 23.9208 34.496 24.0124C34.4611 24.0959 34.4163 24.1834 34.3616 24.275C34.3186 24.3388 34.2657 24.4066 34.2029 24.4784C34.1599 24.5422 34.1447 24.6176 34.1573 24.7046L34.2462 24.6682C34.3054 24.6439 34.2932 24.6143 34.2097 24.5794ZM34.1393 23.9857C34.0603 24.0181 34.0231 24.0679 34.0276 24.1353C34.0438 24.1747 34.056 24.2043 34.0641 24.2241C34.1628 24.1836 34.1878 24.1042 34.1393 23.9857ZM56.8778 4.28665C56.9775 4.36106 57.0349 4.36057 57.0501 4.28517C57.085 4.20167 57.146 4.1536 57.2331 4.14097C57.1926 4.04228 57.1213 4.03695 57.019 4.12499C56.9168 4.21302 56.8697 4.26691 56.8778 4.28665ZM47.4617 12.194C47.5012 12.1778 47.5721 12.1257 47.6743 12.0377C47.7882 11.9218 47.7877 11.8644 47.6728 11.8653C47.6495 11.921 47.6025 11.9749 47.5316 12.027C47.4607 12.0791 47.4374 12.1348 47.4617 12.194ZM46.9628 12.9173C47.0813 12.8688 47.1283 12.8149 47.1041 12.7557L47.0555 12.6372C47.0403 12.7126 47.017 12.7683 46.9856 12.8042C46.9543 12.8402 46.9467 12.8779 46.9628 12.9173ZM46.2795 13.6126C46.4106 13.651 46.4797 13.6227 46.4868 13.5276C46.4858 13.4127 46.5624 13.3467 46.7168 13.3295C46.7006 13.29 46.7181 13.2483 46.7692 13.2042C46.8401 13.1521 46.8158 13.0929 46.6964 13.0266C46.6381 13.1658 46.5539 13.2695 46.4435 13.3378C46.3529 13.398 46.2983 13.4896 46.2795 13.6126ZM31.2861 30.1013C31.3094 30.0457 31.3466 29.9958 31.3977 29.9518C31.4407 29.8881 31.4339 29.7871 31.3773 29.6489C31.2193 29.7137 31.189 29.8645 31.2861 30.1013ZM33.9716 31.4212C34.046 31.3215 34.1222 31.1981 34.2001 31.0508C34.2897 30.8757 34.3143 30.7388 34.2738 30.6401C34.2748 30.755 34.2126 30.8843 34.087 31.028C33.9534 31.152 33.9149 31.283 33.9716 31.4212ZM33.6163 31.5669C33.6755 31.5426 33.7069 31.5067 33.7104 31.4591C33.714 31.4115 33.7355 31.3797 33.775 31.3635C33.7031 31.3007 33.6851 31.285 33.7211 31.3164C33.7686 31.32 33.8157 31.2661 33.8623 31.1547C33.7833 31.1871 33.7084 31.2294 33.6376 31.2815C33.5667 31.3336 33.5596 31.4287 33.6163 31.5669ZM30.7624 33.4633C30.7811 33.3404 30.8017 33.1936 30.824 33.0231C30.8579 32.8247 30.8546 32.6762 30.8142 32.5775C30.8152 32.6924 30.7906 32.8292 30.7405 32.9881C30.6903 33.147 30.6976 33.3054 30.7624 33.4633ZM31.7806 32.3196C31.8595 32.2872 31.8909 32.2513 31.8747 32.2118C31.8585 32.1723 31.811 32.1688 31.732 32.2011L31.7806 32.3196ZM31.6142 33.0103C31.8096 32.6996 31.8355 32.4815 31.6918 32.356C31.7079 32.3955 31.695 32.5045 31.653 32.6832C31.6109 32.8618 31.598 32.9708 31.6142 33.0103ZM33.4241 32.0261C33.4707 31.9148 33.4859 31.8394 33.4697 31.7999C33.4652 31.7326 33.4548 31.6792 33.4386 31.6397C33.4189 31.6478 33.414 31.7766 33.4241 32.0261ZM32.9504 32.2204C33.0238 32.0058 33.0188 31.881 32.9353 31.8461C32.9515 31.8856 32.9241 31.9314 32.8533 31.9835C32.7824 32.0356 32.8148 32.1146 32.9504 32.2204ZM32.7985 32.5247C32.8218 32.4691 32.8393 32.4273 32.8509 32.3995C32.8626 32.3716 32.8957 32.3119 32.9504 32.2204C32.832 32.2689 32.775 32.3268 32.7796 32.3942C32.776 32.4417 32.7823 32.4852 32.7985 32.5247ZM33.3101 32.5916C33.3855 32.6068 33.4407 32.5727 33.4756 32.4892C33.5025 32.3859 33.4666 32.3546 33.3679 32.395C33.3481 32.4031 33.3324 32.4211 33.3208 32.4489C33.2975 32.5046 33.294 32.5522 33.3101 32.5916ZM30.6301 34.6589C30.5912 34.2829 30.6542 34.0149 30.8192 33.8551C30.76 33.8793 30.7223 33.8717 30.7061 33.8323L30.6819 33.7731C30.6434 33.9041 30.6089 34.0451 30.5785 34.1959C30.5401 34.3269 30.5572 34.4813 30.6301 34.6589ZM44.3 16.2918C44.2605 16.308 44.2506 16.3121 44.2704 16.304C44.2901 16.2959 44.2959 16.282 44.2878 16.2622C44.347 16.2379 44.3564 16.1765 44.316 16.0778C44.2765 16.094 44.255 16.1258 44.2514 16.1734C44.2479 16.221 44.2102 16.2134 44.1383 16.1506C44.0978 16.0519 44.1072 15.9904 44.1664 15.9661C44.2373 15.914 44.3122 15.8718 44.3912 15.8394C44.5086 15.676 44.6162 15.5166 44.7139 15.3612C44.8116 15.2059 44.9492 15.0918 45.1269 15.019C45.0606 15.1384 44.9803 15.252 44.8862 15.3598C44.7839 15.4478 44.7037 15.5614 44.6455 15.7006C44.6652 15.6925 44.7034 15.7575 44.7601 15.8957C44.7763 15.9351 44.7785 15.9688 44.7669 15.9966C44.7436 16.0523 44.7023 16.0923 44.6431 16.1165L44.5824 15.9685C44.4443 16.0252 44.3676 16.0912 44.3524 16.1666C44.3569 16.2339 44.3394 16.2756 44.3 16.2918ZM43.6098 16.8861C43.6655 16.9094 43.709 16.9031 43.7404 16.8671C43.7637 16.8115 43.791 16.7657 43.8224 16.7297C43.8654 16.666 43.9125 16.6121 43.9636 16.5681C44.0148 16.5241 44.078 16.5097 44.1534 16.5249C44.1777 16.5841 44.1585 16.6496 44.0957 16.7215C44.0329 16.7933 43.9732 16.7601 43.9166 16.622C43.9732 16.7601 43.9562 16.8593 43.8656 16.9195C43.7948 16.9716 43.7042 17.0319 43.5938 17.1001L43.7123 17.0516C43.7912 17.0192 43.8267 16.9932 43.8186 16.9734C43.7001 17.022 43.6351 17.0602 43.6234 17.088C43.6234 17.088 43.5544 17.1163 43.4162 17.173L43.4458 17.1608C43.4574 17.133 43.4731 17.1151 43.4929 17.107L43.5817 17.0705C43.5412 16.9718 43.5035 16.9643 43.4686 17.0477C43.4372 17.0837 43.4157 17.1155 43.4041 17.1434C43.4856 16.9486 43.5792 16.7833 43.685 16.6477C43.7908 16.5121 43.9024 16.3626 44.0199 16.1992C43.9429 16.4613 43.8062 16.6903 43.6098 16.8861ZM43.0473 17.1167C43.0796 17.1957 43.0505 17.2653 42.9599 17.3255C42.881 17.3579 42.8258 17.392 42.7944 17.4279C42.8258 17.392 42.8531 17.3462 42.8764 17.2905C42.9114 17.2071 42.9683 17.1491 43.0473 17.1167ZM37.8847 24.1793C37.909 24.2385 37.9054 24.2861 37.874 24.322C37.8345 24.3382 37.8229 24.366 37.8391 24.4055C38.1144 24.1773 38.279 23.96 38.3326 23.7535C38.3863 23.547 38.4597 23.3325 38.5529 23.1098C38.6015 23.2282 38.602 23.2857 38.5544 23.2821C38.5266 23.2705 38.5288 23.3041 38.5612 23.3831C38.746 23.2151 38.893 23.0395 39.0024 22.8564C39.1233 22.6454 39.2443 22.4343 39.3653 22.2233C39.2615 22.5887 39.0783 22.929 38.8155 23.2442C38.5645 23.5316 38.3673 23.8661 38.224 24.2477C38.145 24.28 38.1015 24.2864 38.0934 24.2666C38.0737 24.2747 38.0696 24.2648 38.0813 24.237C38.0079 24.4516 37.9223 24.6365 37.8246 24.7919C37.7188 24.9275 37.6408 25.0747 37.5907 25.2336C37.5502 25.1349 37.5515 25.0537 37.5945 24.99C37.6573 24.9181 37.716 24.8364 37.7707 24.7448C37.8299 24.7205 37.8514 24.6886 37.8352 24.6492C37.8307 24.5818 37.8482 24.5401 37.8877 24.5239C37.8472 24.4252 37.8229 24.366 37.8148 24.3463C37.8265 24.3184 37.8497 24.2628 37.8847 24.1793ZM37.1996 26.0511C37.1672 25.9722 37.1214 25.9448 37.0622 25.9691C37.0137 25.8507 37.0504 25.7434 37.1723 25.6473C37.3141 25.543 37.3647 25.4416 37.3242 25.3429C37.3647 25.4416 37.3459 25.5646 37.268 25.7118C37.1819 25.8393 37.1713 25.982 37.236 26.1399C37.1965 26.1561 37.1728 26.1543 37.1647 26.1346C37.1485 26.0951 37.1601 26.0673 37.1996 26.0511ZM37.7728 25.6777C37.754 25.8007 37.7115 25.9219 37.6452 26.0413C37.5789 26.1608 37.5282 26.2622 37.4933 26.3457L37.4448 26.2273C37.504 26.203 37.4941 26.207 37.4151 26.2394C37.3478 26.244 37.3375 26.1906 37.3841 26.0792C37.5151 26.1177 37.5842 26.0894 37.5913 25.9943C37.5984 25.8991 37.6589 25.7936 37.7728 25.6777ZM33.6618 27.8822C33.7346 28.0598 33.7083 28.2205 33.5827 28.3642C33.4688 28.4801 33.4564 28.6465 33.5454 28.8637C33.5616 28.9031 33.5383 28.9588 33.4756 29.0307C33.4047 29.0828 33.3895 29.1582 33.43 29.2569C33.3905 29.2731 33.3771 29.3247 33.3897 29.4117C33.3943 29.479 33.375 29.5446 33.332 29.6083C33.2925 29.6245 33.2809 29.6523 33.297 29.6918C33.3249 29.7035 33.3191 29.7174 33.2796 29.7336C33.2462 29.5397 33.2546 29.3634 33.3047 29.2045C33.3549 29.0456 33.4149 28.8826 33.4847 28.7156C33.4792 28.5334 33.4899 28.3907 33.5167 28.2875C33.5355 28.1645 33.5838 28.0294 33.6618 27.8822ZM36.6735 26.3706C36.7868 26.6469 36.7442 26.7681 36.5459 26.7342C36.4876 26.8733 36.4178 27.0403 36.3363 27.2352C36.2664 27.4022 36.1426 27.5221 35.965 27.5949C36.0035 27.4638 36.0756 27.3305 36.1814 27.1949C36.2872 27.0593 36.3692 26.9219 36.4274 26.7827C36.5656 26.7261 36.6284 26.6542 36.6157 26.5672C36.6147 26.4523 36.634 26.3868 36.6735 26.3706ZM33.1626 29.9544C33.1287 30.1528 33.1145 30.3431 33.12 30.5253C33.1174 30.6877 33.0256 30.8292 32.8444 30.9496C32.7796 30.7917 32.7921 30.6252 32.8817 30.4501C32.991 30.2669 33.0847 30.1017 33.1626 29.9544ZM36.8204 28.2472C36.8796 28.2229 36.9132 28.2206 36.9213 28.2403C36.9492 28.252 36.955 28.2381 36.9388 28.1986C36.9201 28.3216 36.8578 28.4509 36.752 28.5865C36.6462 28.7221 36.5902 28.8949 36.5841 29.1049L36.5598 29.0457C36.5436 29.0062 36.5059 28.9986 36.4467 29.0229C36.349 29.1782 36.2774 29.369 36.2318 29.5952C36.1781 29.8017 36.0705 29.9611 35.9091 30.0734C35.9521 30.0096 35.9435 29.9325 35.8833 29.8419C35.8428 29.7432 35.8917 29.6655 36.0299 29.6088C36.0541 29.6681 36.0367 29.7098 35.9775 29.7341L35.9182 29.7584C36.0706 29.5114 36.2329 29.2605 36.405 29.0054C36.569 28.7307 36.7075 28.4779 36.8204 28.2472ZM35.3335 30.8628C35.3254 30.843 35.333 30.8053 35.3563 30.7497C35.376 30.7416 35.4016 30.7196 35.433 30.6836C35.4725 30.6674 35.4864 30.6733 35.4747 30.7011C35.455 30.7092 35.4573 30.7428 35.4816 30.8021C35.5605 30.7697 35.5676 30.6746 35.5029 30.5166C35.4579 30.3506 35.4847 30.2474 35.5834 30.2069C35.5996 30.2464 35.6018 30.2801 35.5902 30.3079C35.5983 30.3276 35.5849 30.3793 35.5499 30.4628C35.5616 30.4349 35.5773 30.417 35.597 30.4089C35.6365 30.3927 35.6805 30.4438 35.7291 30.5622C35.6537 30.547 35.6142 30.5632 35.6106 30.6108C35.599 30.6386 35.5914 30.6763 35.5878 30.7239C35.5959 30.7436 35.5942 30.7674 35.5825 30.7953C35.5709 30.8231 35.5372 30.8254 35.4816 30.8021L35.3335 30.8628ZM35.0229 31.3706L35.1079 31.5778C34.8407 31.8257 34.6587 32.0848 34.562 32.355C34.4652 32.6253 34.3523 32.856 34.2233 33.0473C34.2167 32.7502 34.3117 32.5038 34.5081 32.308C34.6964 32.0924 34.7954 31.8558 34.805 31.5982C34.8445 31.5821 34.866 31.5502 34.8696 31.5026C34.8731 31.455 34.9242 31.411 35.0229 31.3706Z" fill="#00BBB8"/>
</svg>
